<svg width="25" height="29" viewBox="0 0 25 29" fill="none" xmlns="http://www.w3.org/2000/svg">
<g clip-path="url(#clip0_298_2)">
<path d="M18.5937 18.0134L11.1216 9.86607L8.14723 6.6183C8.5825 6.3337 10.212 5.35714 12.4999 5.35714C14.7879 5.35714 16.4173 6.32812 16.8526 6.6183L13.7108 10.0446L18.4876 15.2567L20.0167 13.5937C20.9263 12.606 21.4285 11.3114 21.4285 9.96652V8.32031C21.4285 7.26004 21.116 6.22768 20.53 5.34598L18.2923 1.98661C17.4608 0.747768 16.0658 0 14.5758 0H10.3347C8.895 0 7.53897 0.697545 6.70192 1.86942L4.57022 4.85491C3.9229 5.75893 3.57134 6.85268 3.57134 7.96875V9.15178C3.57134 10.4464 4.04009 11.6964 4.8883 12.673L8.0133 16.2556L12.6617 21.5904L17.7845 27.4665C18.3425 28.1083 19.28 28.2645 20.0167 27.846L23.0579 26.1105C24.0513 25.5413 24.2633 24.1964 23.4876 23.3538L18.5937 18.0134ZM11.4508 22.9129L6.80237 17.5781L1.51219 23.3538C0.736518 24.1964 0.948571 25.5413 1.94188 26.1105L5.01665 27.8683C5.7421 28.2812 6.6517 28.1417 7.21531 27.5279L11.4508 22.9185V22.9129Z" fill="#FE6C1B"/>
</g>
<defs>
<clipPath id="clip0_298_2">
<rect width="25" height="28.5714" fill="white"/>
</clipPath>
</defs>
</svg>
