<svg width="112" height="115" viewBox="0 0 112 115" fill="none" xmlns="http://www.w3.org/2000/svg">
<path d="M71.311 34.4063C74.8359 34.4063 78.2817 33.4166 81.2125 31.5623C84.1434 29.7081 86.4277 27.0725 87.7766 23.989C89.1255 20.9055 89.4785 17.5125 88.7908 14.2391C88.1031 10.9657 86.4057 7.95884 83.9132 5.59883C81.4208 3.23882 78.2451 1.63163 74.788 0.980506C71.3308 0.32938 67.7474 0.663562 64.4908 1.94079C61.2342 3.21802 58.4507 5.38093 56.4924 8.15601C54.5341 10.9311 53.4888 14.1937 53.4888 17.5313C53.4888 22.0068 55.3665 26.299 58.7088 29.4637C62.0511 32.6284 66.5843 34.4063 71.311 34.4063ZM71.311 9.09376C73.0735 9.09376 74.7964 9.58861 76.2618 10.5157C77.7272 11.4429 78.8694 12.7606 79.5438 14.3024C80.2183 15.8441 80.3947 17.5406 80.0509 19.1773C79.7071 20.814 78.8584 22.3175 77.6121 23.4975C76.3659 24.6775 74.7781 25.4811 73.0495 25.8066C71.3209 26.1322 69.5292 25.9651 67.9009 25.3265C66.2726 24.6879 64.8809 23.6064 63.9017 22.2189C62.9226 20.8313 62.3999 19.2 62.3999 17.5313C62.3999 15.2935 63.3388 13.1474 65.0099 11.565C66.6811 9.98271 68.9477 9.09376 71.311 9.09376ZM108.799 62.1867C108.459 62.3344 104.627 63.9164 97.8438 63.9164C90.1302 63.9164 78.6014 61.8703 64.0429 53.3695C61.8271 59.3257 58.9502 65.0424 55.4604 70.4238C61.7285 72.2509 67.6245 75.0698 72.8983 78.7611C83.5192 86.4287 89.1332 97.3447 89.1332 110.344C89.1332 111.463 88.6638 112.536 87.8282 113.327C86.9927 114.118 85.8594 114.563 84.6777 114.563C83.496 114.563 82.3627 114.118 81.5271 113.327C80.6916 112.536 80.2221 111.463 80.2221 110.344C80.2221 88.3535 60.9018 80.4381 50.0692 77.7275C49.7629 78.0967 49.4454 78.4711 49.128 78.835C38.1896 91.3857 24.4832 97.9143 9.23409 97.9143C7.4972 97.9219 5.76102 97.8463 4.03223 97.6875C2.85055 97.5756 1.7642 97.0238 1.01218 96.1536C0.260162 95.2833 -0.0959323 94.1658 0.0222362 93.0469C0.140405 91.928 0.723156 90.8994 1.64229 90.1873C2.56143 89.4753 3.74166 89.1381 4.92334 89.25C19.3593 90.6106 31.9184 85.3002 42.2386 73.4297C49.1948 65.4457 53.9344 55.7057 56.3014 48.6445C34.6252 36.7002 20.7795 46.8674 20.6292 46.9781C20.1753 47.3451 19.6482 47.622 19.0791 47.7923C18.5101 47.9627 17.9107 48.0231 17.3165 47.9699C16.7223 47.9167 16.1455 47.751 15.6202 47.4827C15.095 47.2144 14.632 46.8489 14.2588 46.4079C13.8856 45.9669 13.6098 45.4594 13.4478 44.9155C13.2857 44.3717 13.2407 43.8025 13.3154 43.2419C13.3901 42.6812 13.583 42.1405 13.8826 41.6517C14.1823 41.163 14.5825 40.7363 15.0597 40.3969C15.8951 39.7641 35.7892 25.1039 64.9117 43.8615C90.236 60.1617 104.973 54.5719 105.112 54.5086C105.646 54.2699 106.224 54.134 106.814 54.1089C107.404 54.0837 107.993 54.1698 108.547 54.362C109.102 54.5543 109.61 54.8489 110.043 55.2288C110.476 55.6088 110.825 56.0663 111.07 56.575C111.314 57.0837 111.45 57.6334 111.468 58.1921C111.486 58.7508 111.387 59.3073 111.177 59.8294C110.966 60.3516 110.648 60.8288 110.24 61.2335C109.833 61.6382 109.345 61.9622 108.804 62.1867H108.799Z" fill="white"/>
</svg>
