<svg width="119" height="103" viewBox="0 0 119 103" fill="none" xmlns="http://www.w3.org/2000/svg">
<path d="M29.9688 55.7188H8.875C7.75612 55.7188 6.68306 55.2743 5.89189 54.4831C5.10072 53.6919 4.65625 52.6189 4.65625 51.5C4.65625 50.3811 5.10072 49.3081 5.89189 48.5169C6.68306 47.7257 7.75612 47.2813 8.875 47.2813H27.7117L34.8941 36.5023C35.2792 35.9237 35.8014 35.4491 36.4141 35.1209C37.0268 34.7926 37.7111 34.6209 38.4062 34.6209C39.1014 34.6209 39.7857 34.7926 40.3984 35.1209C41.0111 35.4491 41.5333 35.9237 41.9184 36.5023L55.2812 56.5414L60.2066 49.1586C60.5922 48.5807 61.1145 48.1069 61.7272 47.7794C62.3399 47.4519 63.024 47.2808 63.7188 47.2813H76.375C77.4939 47.2813 78.5669 47.7257 79.3581 48.5169C80.1493 49.3081 80.5938 50.3811 80.5938 51.5C80.5938 52.6189 80.1493 53.6919 79.3581 54.4831C78.5669 55.2743 77.4939 55.7188 76.375 55.7188H65.9758L58.7934 66.4977C58.4083 67.0763 57.8861 67.5509 57.2734 67.8791C56.6607 68.2074 55.9764 68.3791 55.2812 68.3791C54.5861 68.3791 53.9018 68.2074 53.2891 67.8791C52.6764 67.5509 52.1542 67.0763 51.7691 66.4977L38.4062 46.4481L33.4809 53.8309C33.0965 54.4107 32.5747 54.8865 31.9619 55.2159C31.3492 55.5453 30.6644 55.7181 29.9688 55.7188ZM85.8672 0.875C74.9775 0.875 65.4432 5.55781 59.5 13.4732C53.5568 5.55781 44.0225 0.875 33.1328 0.875C24.4645 0.88477 16.154 4.33258 10.0245 10.462C3.89508 16.5915 0.44727 24.902 0.4375 33.5703C0.4375 33.9658 0.4375 34.3613 0.4375 34.7568C0.472465 35.8757 0.950472 36.9349 1.76637 37.7013C2.58226 38.4678 3.6692 38.8787 4.78809 38.8438C5.90697 38.8088 6.96613 38.3308 7.73258 37.5149C8.49902 36.699 8.90997 35.612 8.875 34.4932C8.875 34.1873 8.875 33.8762 8.875 33.5703C8.88337 27.1393 11.4418 20.9741 15.9892 16.4267C20.5366 11.8793 26.7018 9.32087 33.1328 9.3125C43.3896 9.3125 52.0012 14.7758 55.5977 23.5508C55.9155 24.3245 56.4562 24.9864 57.151 25.4521C57.8459 25.9179 58.6635 26.1665 59.5 26.1665C60.3365 26.1665 61.1541 25.9179 61.849 25.4521C62.5438 24.9864 63.0845 24.3245 63.4023 23.5508C66.9988 14.76 75.6104 9.3125 85.8672 9.3125C92.2982 9.32087 98.4634 11.8793 103.011 16.4267C107.558 20.9741 110.117 27.1393 110.125 33.5703C110.125 61.8412 69.1188 87.4385 59.5 93.0547C53.7889 89.7272 37.0193 79.3438 24.3367 65.5221C23.5801 64.6969 22.5266 64.2061 21.4081 64.1576C20.2896 64.1092 19.1976 64.507 18.3725 65.2637C17.5473 66.0203 17.0565 67.0738 17.008 68.1923C16.9596 69.3108 17.3574 70.4028 18.1141 71.2279C34.5514 89.1576 56.5732 101.118 57.5014 101.619C58.1157 101.949 58.8024 102.122 59.5 102.122C60.1976 102.122 60.8843 101.949 61.4986 101.619C63.8295 100.364 118.562 70.4844 118.562 33.5703C118.553 24.902 115.105 16.5915 108.975 10.462C102.846 4.33258 94.5355 0.88477 85.8672 0.875Z" fill="white"/>
</svg>
