<svg width="111" height="111" viewBox="0 0 111 111" fill="none" xmlns="http://www.w3.org/2000/svg">
<path d="M55.5 0.65625C44.653 0.65625 34.0495 3.87278 25.0305 9.89909C16.0115 15.9254 8.982 24.4908 4.83101 34.5122C0.680013 44.5336 -0.406076 55.5608 1.71008 66.1995C3.82624 76.8381 9.0496 86.6104 16.7196 94.2804C24.3897 101.95 34.1619 107.174 44.8005 109.29C55.4392 111.406 66.4664 110.32 76.4878 106.169C86.5092 102.018 95.0746 94.9886 101.101 85.9696C107.127 76.9505 110.344 66.3471 110.344 55.5C110.328 40.9592 104.545 27.0184 94.2635 16.7366C83.9816 6.4547 70.0408 0.671605 55.5 0.65625ZM55.5 101.906C46.3217 101.906 37.3496 99.1846 29.7181 94.0854C22.0866 88.9862 16.1386 81.7385 12.6262 73.2589C9.11386 64.7793 8.19486 55.4485 9.98546 46.4466C11.7761 37.4447 16.1958 29.1759 22.6859 22.6858C29.1759 16.1958 37.4447 11.776 46.4466 9.98543C55.4485 8.19484 64.7793 9.11384 73.2589 12.6262C81.7386 16.1386 88.9862 22.0866 94.0854 29.7181C99.1846 37.3495 101.906 46.3217 101.906 55.5C101.892 67.8034 96.9986 79.5989 88.2988 88.2988C79.5989 96.9986 67.8034 101.892 55.5 101.906ZM30.1875 44.9531C30.1875 43.7015 30.5587 42.4781 31.254 41.4374C31.9493 40.3968 32.9377 39.5857 34.094 39.1067C35.2503 38.6277 36.5227 38.5024 37.7502 38.7466C38.9777 38.9908 40.1053 39.5935 40.9903 40.4785C41.8753 41.3635 42.478 42.491 42.7222 43.7186C42.9664 44.9461 42.841 46.2185 42.3621 47.3748C41.8831 48.5311 41.072 49.5194 40.0314 50.2148C38.9907 50.9101 37.7672 51.2812 36.5156 51.2812C34.8373 51.2812 33.2277 50.6145 32.041 49.4278C30.8542 48.241 30.1875 46.6314 30.1875 44.9531ZM80.8125 44.9531C80.8125 46.2047 80.4414 47.4282 79.746 48.4688C79.0507 49.5095 78.0624 50.3206 76.9061 50.7995C75.7497 51.2785 74.4774 51.4038 73.2498 51.1597C72.0223 50.9155 70.8947 50.3128 70.0097 49.4278C69.1247 48.5428 68.522 47.4152 68.2779 46.1877C68.0337 44.9601 68.159 43.6878 68.638 42.5315C69.1169 41.3751 69.928 40.3868 70.9687 39.6915C72.0093 38.9961 73.2328 38.625 74.4844 38.625C76.1627 38.625 77.7723 39.2917 78.9591 40.4785C80.1458 41.6652 80.8125 43.2748 80.8125 44.9531ZM80.2483 70.2656C74.8219 79.6471 65.799 85.0312 55.5 85.0312C45.201 85.0312 36.1834 79.6523 30.7571 70.2656C30.4518 69.7855 30.2469 69.2485 30.1545 68.6871C30.0622 68.1256 30.0843 67.5513 30.2197 66.9987C30.3551 66.446 30.6008 65.9265 30.9422 65.4713C31.2836 65.0161 31.7135 64.6346 32.2061 64.3499C32.6987 64.0652 33.2438 63.883 33.8086 63.8144C34.3734 63.7458 34.9463 63.7922 35.4928 63.9507C36.0392 64.1092 36.5479 64.3766 36.9884 64.7369C37.4288 65.0971 37.7918 65.5427 38.0555 66.0469C41.9948 72.8549 48.1858 76.5938 55.5 76.5938C62.8143 76.5938 69.0053 72.8496 72.9393 66.0469C73.4987 65.0776 74.4203 64.3703 75.5012 64.0806C76.5821 63.7908 77.7339 63.9423 78.7031 64.5018C79.6724 65.0612 80.3797 65.9827 80.6694 67.0637C80.9592 68.1446 80.8077 69.2964 80.2483 70.2656Z" fill="white"/>
</svg>
