<svg width="225" height="118" viewBox="0 0 225 118" fill="none" xmlns="http://www.w3.org/2000/svg">
<g clip-path="url(#clip0_1062_68)">
<path d="M104.585 67.0933L104.633 67.2249L96.3971 44.5759L87.7338 68.3903H86.4907L96.3971 41.1572L106.304 68.3903H105.014L104.585 67.0933Z" fill="black"/>
<path d="M142.176 34.9506C136.996 37.3247 133.219 42.019 125.558 55.4003C121.025 63.3319 115.468 67.7564 112.5 68.9974C107.037 70.8184 103.712 61.6504 102.99 60.2968C101.371 57.2618 101.371 55.5802 101.776 59.2852C102.383 62.5226 104.703 69.8067 107.239 71.4254C110.099 73.206 113.512 72.9497 116.749 71.2231C120.31 69.3346 125.881 64.8427 130.737 57.0729C135.647 49.1952 139.64 44.6089 143.309 42.6664C145.198 41.6413 146.439 41.4254 150.755 41.4254C155.504 41.4254 156.151 41.5873 159.388 43.206C161.331 44.1772 163.975 45.9039 165.27 47.0369L167.644 49.0873L161.493 49.1413C156.799 49.1413 154.424 49.411 151.727 50.2744C140.773 53.7276 133.058 63.6557 128.795 79.8427C128.04 82.6485 127.5 85.0765 127.662 85.1844C127.77 85.2923 129.119 82.5405 130.63 79.0873C137.482 63.4398 145.198 56.0477 155.989 54.6988C161.87 53.9434 166.457 54.8067 177.842 58.6377C183.507 60.5801 188.309 62.0369 188.579 61.8751C189.874 61.0657 188.255 53.4039 185.881 49.0873C184.478 46.4974 178.651 40.0765 177.68 40.0765C177.464 40.0765 177.626 41.2636 178.058 42.7744C179.137 46.4974 178.273 48.3859 175.36 48.6017C172.608 48.8175 170.558 47.7384 161.978 41.1556C151.835 33.4938 147.95 32.2528 142.176 34.9506Z" fill="black"/>
<path d="M154.317 59.5459L152.428 60.1394L155.666 60.8948C159.55 61.812 160.899 62.9991 161.277 65.9667L161.601 68.2329L163.381 66.7761C165.486 64.9415 165.648 62.8372 163.867 60.7329C162.788 59.4919 162.086 59.2221 159.389 59.1142C157.662 59.0063 155.342 59.2221 154.317 59.5459Z" fill="black"/>
<path d="M145.281 54.3367C145.281 52.6619 145.704 51.4533 146.55 50.7108C147.396 49.9684 148.768 49.5972 150.668 49.5972C151.997 49.5972 153.068 49.9425 153.879 50.6331C154.691 51.3238 155.278 52.377 155.64 53.7929L153.232 55.6058H151.963L154.76 53.508C154.397 52.3511 153.871 51.5396 153.18 51.0734C152.506 50.6072 151.669 50.3741 150.668 50.3741C149.977 50.3741 149.39 50.4173 148.906 50.5036C148.44 50.59 147.965 50.7626 147.482 51.0216C147.016 51.2634 146.662 51.6605 146.42 52.213C146.178 52.7655 146.058 53.4734 146.058 54.3367C146.058 55.0964 146.403 55.7698 147.094 56.3569C147.801 56.9439 148.656 57.4447 149.658 57.859C150.659 58.2734 151.66 58.6965 152.662 59.1281C153.681 59.5598 154.535 60.1123 155.226 60.7857C155.934 61.459 156.288 62.236 156.288 63.1166C156.288 64.8432 155.856 66.1295 154.993 66.9756C154.147 67.8216 152.688 68.2447 150.616 68.2447C148.924 68.2447 147.594 67.908 146.627 67.2346C145.66 66.5439 144.996 65.4821 144.633 64.049L145.358 63.7382C145.704 65.1367 146.291 66.1123 147.119 66.6648C147.965 67.2 149.131 67.4677 150.616 67.4677C152.273 67.4677 153.499 67.1483 154.294 66.5094C155.105 65.8706 155.511 64.7396 155.511 63.1166C155.511 62.3569 155.157 61.6835 154.449 61.0964C153.758 60.5094 152.904 60.0087 151.885 59.5943C150.883 59.1799 149.882 58.7569 148.881 58.3252C147.879 57.8936 147.024 57.3411 146.317 56.6677C145.626 55.9943 145.281 55.2173 145.281 54.3367Z" fill="black"/>
<path d="M132.939 67.9855H132.162V49.856H132.939V67.9855Z" fill="black"/>
<path d="M121.433 67.2085V67.9855H110.608V49.856H111.385V67.2085H121.433Z" fill="black"/>
<path d="M84.4701 49.856V50.6329H78.3838V67.9855H77.6068V50.6329H71.5205V49.856H84.4701Z" fill="black"/>
<path d="M60.8101 67.9855H60.0331V49.856H60.8101V67.9855Z" fill="black"/>
<path d="M48.5612 49.7754L49.2605 49.8563L42.6561 68.0117L36.0518 49.8563H36.8806L42.6561 65.7326L48.1468 50.6333L48.5612 49.7754Z" fill="black"/>
<path d="M101.317 48H102L97 61.7451L92 48H92.6275L97 60.0196L101.157 48.5882L101.317 48Z" fill="black"/>
</g>
<defs>
<clipPath id="clip0_1062_68">
<rect width="225" height="117.356" fill="white"/>
</clipPath>
</defs>
</svg>
