<svg width="379" height="128" viewBox="0 0 379 128" fill="none" xmlns="http://www.w3.org/2000/svg">
<path d="M163.5 32.2H165.728L149.408 77.064L133.088 32.2H135.136L149.408 71.432L162.976 34.12L163.5 32.2Z" fill="#5EAF6B"/>
<path d="M169.442 82.7949L169.56 83.12L149.208 27.152L127.8 86H124.728L149.208 18.704L173.688 86H170.5L169.442 82.7949Z" fill="#5EAF6B"/>
<path d="M262.333 3.36652C249.533 9.23319 240.2 20.8332 221.267 53.8999C210.067 73.4999 196.333 84.4332 189 87.4999C175.5 91.9999 167.284 69.3446 165.5 65.9999C161.5 58.4999 161.5 54.3446 162.5 63.4999C164 71.4999 169.733 89.4999 176 93.4999C183.067 97.8999 191.5 97.2665 199.5 92.9999C208.3 88.3332 222.067 77.2332 234.067 58.0332C246.2 38.5665 256.067 27.2332 265.133 22.4332C269.8 19.8999 272.867 19.3665 283.533 19.3665C295.267 19.3665 296.867 19.7665 304.867 23.7665C309.667 26.1665 316.2 30.4332 319.4 33.2332L325.267 38.2999L310.067 38.4332C298.467 38.4332 292.6 39.0999 285.933 41.2332C258.867 49.7665 239.8 74.2999 229.267 114.3C227.4 121.233 226.067 127.233 226.467 127.5C226.733 127.767 230.067 120.967 233.8 112.433C250.733 73.7665 269.8 55.4999 296.467 52.1665C311 50.2999 322.333 52.4332 350.467 61.8999C364.467 66.6999 376.333 70.2999 377 69.8999C380.2 67.8999 376.2 48.9665 370.333 38.2999C366.867 31.8999 352.467 16.0332 350.067 16.0332C349.533 16.0332 349.933 18.9665 351 22.6999C353.667 31.8999 351.533 36.5665 344.333 37.0999C337.533 37.6332 332.467 34.9665 311.267 18.6999C286.2 -0.233482 276.6 -3.30014 262.333 3.36652Z" fill="#5EAF6B"/>
<path d="M292.333 64.1445L287.667 65.6112L295.667 67.4779C305.267 69.7445 308.6 72.6779 309.533 80.0112L310.333 85.6112L314.733 82.0112C319.933 77.4779 320.333 72.2779 315.933 67.0779C313.267 64.0112 311.533 63.3445 304.867 63.0779C300.6 62.8112 294.867 63.3445 292.333 64.1445Z" fill="#5EAF6B"/>
<path d="M270.005 51.2721C270.005 47.1334 271.05 44.1467 273.141 42.3121C275.231 40.4774 278.623 39.5601 283.317 39.5601C286.602 39.5601 289.247 40.4134 291.253 42.1201C293.258 43.8267 294.709 46.4294 295.605 49.9281L289.653 54.4081H286.517L293.429 49.2241C292.533 46.3654 291.231 44.3601 289.525 43.2081C287.861 42.0561 285.791 41.4801 283.317 41.4801C281.61 41.4801 280.159 41.5867 278.965 41.8001C277.813 42.0134 276.639 42.4401 275.445 43.0801C274.293 43.6774 273.418 44.6587 272.821 46.0241C272.223 47.3894 271.924 49.1387 271.924 51.2721C271.924 53.1494 272.778 54.8134 274.484 56.2641C276.234 57.7147 278.346 58.9521 280.821 59.9761C283.295 61.0001 285.77 62.0454 288.245 63.1121C290.762 64.1787 292.874 65.5441 294.581 67.2081C296.33 68.8721 297.205 70.7921 297.205 72.9681C297.205 77.2347 296.138 80.4134 294.005 82.5041C291.914 84.5947 288.309 85.6401 283.189 85.6401C279.007 85.6401 275.722 84.8081 273.333 83.1441C270.943 81.4374 269.301 78.8134 268.405 75.2721L270.197 74.5041C271.05 77.9601 272.501 80.3707 274.549 81.7361C276.639 83.0587 279.519 83.7201 283.189 83.7201C287.285 83.7201 290.314 82.9307 292.277 81.3521C294.282 79.7734 295.285 76.9787 295.285 72.9681C295.285 71.0907 294.41 69.4267 292.661 67.9761C290.954 66.5254 288.842 65.2881 286.325 64.2641C283.85 63.2401 281.375 62.1947 278.901 61.1281C276.426 60.0614 274.314 58.6961 272.565 57.0321C270.858 55.3681 270.005 53.4481 270.005 51.2721Z" fill="white"/>
<path d="M239.506 85.0001H237.586V40.2001H239.506V85.0001Z" fill="white"/>
<path d="M211.076 83.0801V85.0001H184.324V40.2001H186.244V83.0801H211.076Z" fill="white"/>
<path d="M119.735 40.2001V42.1201H104.695V85.0001H102.775V42.1201H87.735V40.2001H119.735Z" fill="white"/>
<path d="M61.2685 85.0001H59.3485V40.2001H61.2685V85.0001Z" fill="white"/>
<path d="M31 40.0001L32.728 40.2001L16.408 85.0641L0.0880127 40.2001H2.13601L16.408 79.4321L29.976 42.1201L31 40.0001Z" fill="white"/>
</svg>
