<svg width="298" height="98" viewBox="0 0 298 98" fill="none" xmlns="http://www.w3.org/2000/svg">
<path d="M168.5 0.800049H171.592L147.112 68.0961L122.632 0.800049H125.704L147.112 59.6481L167.464 3.68005L168.5 0.800049Z" fill="#A87BC7"/>
<path d="M161.5 73.0801L161 72.5L147.472 35.7681L133.2 75.0001H131.152L147.472 30.1361L163.792 75.0001L163 74.5L161.5 73.0801Z" fill="#A87BC7"/>
<path d="M210.967 35.4333C204.567 38.3667 199.9 44.1667 190.433 60.7C184.833 70.5 179.667 73.9667 176 75.5C169.133 78.3667 163 73.5 161 68C158.5 64.4286 157.611 63.1391 159 68C160 71.5 163.867 77.8278 167 79.8278C170.533 82.0278 177.833 82.1 181.833 79.9667C186.233 77.6333 190.833 72.3667 196.833 62.7667C202.9 53.0333 207.833 47.3667 212.367 44.9667C214.7 43.7 216.233 43.4333 221.567 43.4333C227.433 43.4333 228.233 43.6333 232.233 45.6333C234.633 46.8333 237.9 48.9667 239.5 50.3667L242.433 52.9L234.833 52.9667C229.033 52.9667 226.1 53.3 222.767 54.3667C209.233 58.6333 199.7 70.9 194.433 90.9C193.5 94.3667 192.833 97.3667 193.033 97.5C193.167 97.6333 194.833 94.2333 196.7 89.9667C205.167 70.6333 214.7 61.5 228.033 59.8333C235.3 58.9 240.967 59.9667 255.033 64.7C262.033 67.1 267.967 68.9 268.3 68.7C269.9 67.7 267.9 58.2333 264.967 52.9C263.233 49.7 256.033 41.7667 254.833 41.7667C254.567 41.7667 254.767 43.2333 255.3 45.1C256.633 49.7 255.567 52.0333 251.967 52.3C248.567 52.5667 246.033 51.2333 235.433 43.1C222.9 33.6333 218.1 32.1 210.967 35.4333Z" fill="#A87BC7"/>
<path d="M225.667 66.0722L223.333 66.8055L227.333 67.7389C232.133 68.8722 233.8 70.3389 234.267 74.0055L234.667 76.8055L236.867 75.0055C239.467 72.7389 239.667 70.1389 237.467 67.5389C236.133 66.0055 235.267 65.6722 231.933 65.5389C229.8 65.4055 226.933 65.6722 225.667 66.0722Z" fill="#A87BC7"/>
<path d="M270.005 41.2721C270.005 37.1334 271.05 34.1467 273.141 32.3121C275.231 30.4774 278.623 29.5601 283.317 29.5601C286.602 29.5601 289.247 30.4134 291.253 32.1201C293.258 33.8267 294.709 36.4294 295.605 39.9281L289.653 44.4081H286.517L293.429 39.2241C292.533 36.3654 291.231 34.3601 289.525 33.2081C287.861 32.0561 285.791 31.4801 283.317 31.4801C281.61 31.4801 280.159 31.5867 278.965 31.8001C277.813 32.0134 276.639 32.4401 275.445 33.0801C274.293 33.6774 273.418 34.6587 272.821 36.0241C272.223 37.3894 271.925 39.1387 271.925 41.2721C271.925 43.1494 272.778 44.8134 274.485 46.2641C276.234 47.7147 278.346 48.9521 280.821 49.9761C283.295 51.0001 285.77 52.0454 288.245 53.1121C290.762 54.1787 292.874 55.5441 294.581 57.2081C296.33 58.8721 297.205 60.7921 297.205 62.9681C297.205 67.2347 296.138 70.4134 294.005 72.5041C291.914 74.5947 288.309 75.6401 283.189 75.6401C279.007 75.6401 275.722 74.8081 273.333 73.1441C270.943 71.4374 269.301 68.8134 268.405 65.2721L270.197 64.5041C271.05 67.9601 272.501 70.3707 274.549 71.7361C276.639 73.0587 279.519 73.7201 283.189 73.7201C287.285 73.7201 290.314 72.9307 292.277 71.3521C294.282 69.7734 295.285 66.9787 295.285 62.9681C295.285 61.0907 294.41 59.4267 292.661 57.9761C290.954 56.5254 288.842 55.2881 286.325 54.2641C283.85 53.2401 281.375 52.1947 278.901 51.1281C276.426 50.0614 274.314 48.6961 272.565 47.0321C270.858 45.3681 270.005 43.4481 270.005 41.2721Z" fill="white"/>
<path d="M239.506 75.0001H237.586V30.2001H239.506V75.0001Z" fill="white"/>
<path d="M211.075 73.0801V75.0001H184.323V30.2001H186.243V73.0801H211.075Z" fill="white"/>
<path d="M119.735 30.2001V32.1201H104.695V75.0001H102.775V32.1201H87.735V30.2001H119.735Z" fill="white"/>
<path d="M61.2685 75.0001H59.3485V30.2001H61.2685V75.0001Z" fill="white"/>
<path d="M31 30.2001H32.728L16.408 75.0641L0.0880127 30.2001H2.13601L16.408 69.4321L29.976 32.1201L31 30.2001Z" fill="white"/>
</svg>
