<svg width="298" height="98" viewBox="0 0 298 98" fill="none" xmlns="http://www.w3.org/2000/svg">
<path d="M168.5 0.800049H171.592L147.112 68.0961L122.632 0.800049H125.704L147.112 59.6481L167.464 3.68005L168.5 0.800049Z" fill="#A87BC7"/>
<path d="M161.5 73.0802L161 72.5001L147.472 35.7682L133.2 75.0002H131.152L147.472 30.1362L163.792 75.0002L163 74.5001L161.5 73.0802Z" fill="#A87BC7"/>
<path d="M210.967 35.4334C204.567 38.3668 199.9 44.1668 190.433 60.7001C184.833 70.5001 179.667 73.9668 176 75.5001C169.133 78.3668 163 73.5001 161 68.0001C158.5 64.4287 157.611 63.1392 159 68.0001C160 71.5001 163.867 77.8279 167 79.8279C170.533 82.0279 177.833 82.1001 181.833 79.9668C186.233 77.6334 190.833 72.3668 196.833 62.7668C202.9 53.0334 207.833 47.3668 212.367 44.9668C214.7 43.7001 216.233 43.4334 221.567 43.4334C227.433 43.4334 228.233 43.6334 232.233 45.6334C234.633 46.8334 237.9 48.9668 239.5 50.3668L242.433 52.9001L234.833 52.9668C229.033 52.9668 226.1 53.3001 222.767 54.3668C209.233 58.6334 199.7 70.9001 194.433 90.9001C193.5 94.3668 192.833 97.3668 193.033 97.5001C193.167 97.6334 194.833 94.2334 196.7 89.9668C205.167 70.6334 214.7 61.5001 228.033 59.8334C235.3 58.9001 240.967 59.9668 255.033 64.7001C262.033 67.1001 267.967 68.9001 268.3 68.7001C269.9 67.7001 267.9 58.2334 264.967 52.9001C263.233 49.7001 256.033 41.7668 254.833 41.7668C254.567 41.7668 254.767 43.2334 255.3 45.1001C256.633 49.7001 255.567 52.0334 251.967 52.3001C248.567 52.5668 246.033 51.2334 235.433 43.1001C222.9 33.6334 218.1 32.1001 210.967 35.4334Z" fill="#A87BC7"/>
<path d="M225.667 66.0723L223.333 66.8057L227.333 67.739C232.133 68.8723 233.8 70.339 234.267 74.0057L234.667 76.8057L236.867 75.0057C239.467 72.739 239.667 70.139 237.467 67.539C236.133 66.0057 235.267 65.6723 231.933 65.539C229.8 65.4057 226.933 65.6723 225.667 66.0723Z" fill="#A87BC7"/>
<path d="M270.005 41.2721C270.005 37.1334 271.05 34.1467 273.141 32.3121C275.231 30.4774 278.623 29.5601 283.317 29.5601C286.602 29.5601 289.247 30.4134 291.253 32.1201C293.258 33.8267 294.709 36.4294 295.605 39.9281L289.653 44.4081H286.517L293.429 39.2241C292.533 36.3654 291.231 34.3601 289.525 33.2081C287.861 32.0561 285.791 31.4801 283.317 31.4801C281.61 31.4801 280.159 31.5867 278.965 31.8001C277.813 32.0134 276.639 32.4401 275.445 33.0801C274.293 33.6774 273.418 34.6587 272.821 36.0241C272.223 37.3894 271.924 39.1387 271.924 41.2721C271.924 43.1494 272.778 44.8134 274.484 46.2641C276.234 47.7147 278.346 48.9521 280.821 49.9761C283.295 51.0001 285.77 52.0454 288.245 53.1121C290.762 54.1787 292.874 55.5441 294.581 57.2081C296.33 58.8721 297.205 60.7921 297.205 62.9681C297.205 67.2347 296.138 70.4134 294.005 72.5041C291.914 74.5947 288.309 75.6401 283.189 75.6401C279.007 75.6401 275.722 74.8081 273.333 73.1441C270.943 71.4374 269.301 68.8134 268.405 65.2721L270.197 64.5041C271.05 67.9601 272.501 70.3707 274.549 71.7361C276.639 73.0587 279.519 73.7201 283.189 73.7201C287.285 73.7201 290.314 72.9307 292.277 71.3521C294.282 69.7734 295.285 66.9787 295.285 62.9681C295.285 61.0907 294.41 59.4267 292.661 57.9761C290.954 56.5254 288.842 55.2881 286.325 54.2641C283.85 53.2401 281.375 52.1947 278.901 51.1281C276.426 50.0614 274.314 48.6961 272.565 47.0321C270.858 45.3681 270.005 43.4481 270.005 41.2721Z" fill="black"/>
<path d="M239.506 75H237.586V30.2H239.506V75Z" fill="black"/>
<path d="M211.076 73.08V75H184.324V30.2H186.244V73.08H211.076Z" fill="black"/>
<path d="M119.735 30.2V32.12H104.695V75H102.775V32.12H87.735V30.2H119.735Z" fill="black"/>
<path d="M61.2685 75H59.3485V30.2H61.2685V75Z" fill="black"/>
<path d="M31 30.2H32.728L16.408 75.064L0.0880127 30.2H2.13601L16.408 69.432L29.976 32.12L31 30.2Z" fill="black"/>
</svg>
