<svg width="150" height="155" viewBox="0 0 150 155" fill="none" xmlns="http://www.w3.org/2000/svg">
<rect width="150" height="155" rx="30" fill="#222121"/>
<path d="M70.3509 35.7317C63.4484 38.8954 58.4153 45.1508 48.2053 62.9824C42.1655 73.5519 38.5705 78.0098 34.6159 79.6636C27.21 82.7553 19.7323 78.4412 18.7256 70.5321C18.1504 66.0023 17 67.2246 17 72.4015C17 77.2908 19.0851 81.4611 22.4645 83.6181C26.2753 85.9909 34.6159 86.0628 38.93 83.762C43.6755 81.2454 48.6367 75.5652 55.1078 65.2114C61.6509 54.7137 66.9716 48.6021 71.8609 46.0136C74.3774 44.6475 76.0312 44.3599 81.7833 44.3599C88.1106 44.3599 88.9734 44.5756 93.2875 46.7327C95.876 48.0269 99.3992 50.3277 101.125 51.8377L104.288 54.5699L96.0917 54.6418C89.8363 54.6418 86.6726 55.0013 83.0775 56.1518C68.4815 60.7535 58.1996 73.9833 52.5194 95.5538C51.5127 99.2927 50.7937 102.528 51.0094 102.672C51.1532 102.816 52.9508 99.1489 54.964 94.5472C64.0955 73.6957 74.3774 63.8452 88.7577 62.0477C96.595 61.0411 102.707 62.1915 117.878 67.2965C125.428 69.885 131.827 71.8263 132.186 71.6106C133.912 70.5321 131.755 60.322 128.591 54.5699C126.722 51.1186 118.956 42.5624 117.662 42.5624C117.375 42.5624 117.59 44.1442 118.165 46.1574C119.604 51.1186 118.453 53.6352 114.57 53.9228C110.903 54.2104 108.171 52.7724 96.7388 44.0004C83.2213 33.7904 78.0444 32.1366 70.3509 35.7317Z" fill="#A87BC7"/>
<path d="M86.7445 57.5907L84.228 58.3816L88.5421 59.3883C93.719 60.6106 95.5165 62.1924 96.0198 66.147L96.4512 69.1669L98.824 67.2255C101.628 64.7809 101.844 61.9767 99.4711 59.1726C98.0331 57.5188 97.0983 57.1593 93.5033 57.0155C91.2024 56.8717 88.1106 57.1593 86.7445 57.5907Z" fill="#A87BC7"/>
<path d="M127.47 128.8L118.99 105.48L110.07 130H108.79L118.99 101.96L129.19 130H128L127.47 128.8Z" fill="#A87BC7"/>
<path d="M95 110V110.857H85.6V130H84.4V110.857H75V110H95Z" fill="#A87BC7"/>
<path d="M59 130H58V110H59V130Z" fill="#A87BC7"/>
<path d="M40 102H41.08L30.88 130.04L20.68 102H21.96L30.88 126.52L39.36 103.2L40 102Z" fill="#A87BC7"/>
</svg>
