<svg width="379" height="128" viewBox="0 0 379 128" fill="none" xmlns="http://www.w3.org/2000/svg">
<path d="M163.5 32.2002H165.728L149.408 77.0642L133.088 32.2002H135.136L149.408 71.4322L162.976 34.1202L163.5 32.2002Z" fill="#A87BC7"/>
<path d="M169.442 82.795L169.56 83.1201L149.208 27.1521L127.8 86.0001H124.728L149.208 18.7041L173.688 86.0001H170.5L169.442 82.795Z" fill="#A87BC7"/>
<path d="M262.333 3.36665C249.533 9.23331 240.2 20.8333 221.267 53.9C210.067 73.5 196.333 84.4333 189 87.5C175.5 92 167.284 69.3447 165.5 66C161.5 58.5 161.5 54.3447 162.5 63.5C164 71.5 169.733 89.5 176 93.5C183.067 97.9 191.5 97.2667 199.5 93C208.3 88.3333 222.067 77.2333 234.067 58.0333C246.2 38.5666 256.067 27.2333 265.133 22.4333C269.8 19.9 272.867 19.3666 283.533 19.3666C295.267 19.3666 296.867 19.7666 304.867 23.7666C309.667 26.1666 316.2 30.4333 319.4 33.2333L325.267 38.3L310.067 38.4333C298.467 38.4333 292.6 39.1 285.933 41.2333C258.867 49.7666 239.8 74.3 229.267 114.3C227.4 121.233 226.067 127.233 226.467 127.5C226.733 127.767 230.067 120.967 233.8 112.433C250.733 73.7666 269.8 55.5 296.467 52.1666C311 50.3 322.333 52.4333 350.467 61.9C364.467 66.7 376.333 70.3 377 69.9C380.2 67.9 376.2 48.9666 370.333 38.3C366.867 31.9 352.467 16.0333 350.067 16.0333C349.533 16.0333 349.933 18.9666 351 22.7C353.667 31.9 351.533 36.5667 344.333 37.1C337.533 37.6333 332.467 34.9666 311.267 18.7C286.2 -0.23336 276.6 -3.30002 262.333 3.36665Z" fill="#A87BC7"/>
<path d="M292.333 64.1447L287.667 65.6113L295.667 67.478C305.267 69.7447 308.6 72.678 309.533 80.0113L310.333 85.6113L314.733 82.0113C319.933 77.478 320.333 72.278 315.933 67.078C313.267 64.0113 311.533 63.3447 304.867 63.078C300.6 62.8113 294.867 63.3447 292.333 64.1447Z" fill="#A87BC7"/>
<path d="M270.005 51.2721C270.005 47.1334 271.05 44.1467 273.141 42.3121C275.231 40.4774 278.623 39.5601 283.317 39.5601C286.602 39.5601 289.247 40.4134 291.253 42.1201C293.258 43.8267 294.709 46.4294 295.605 49.9281L289.653 54.4081H286.517L293.429 49.2241C292.533 46.3654 291.231 44.3601 289.525 43.2081C287.861 42.0561 285.791 41.4801 283.317 41.4801C281.61 41.4801 280.159 41.5867 278.965 41.8001C277.813 42.0134 276.639 42.4401 275.445 43.0801C274.293 43.6774 273.418 44.6587 272.821 46.0241C272.223 47.3894 271.924 49.1387 271.924 51.2721C271.924 53.1494 272.778 54.8134 274.484 56.2641C276.234 57.7147 278.346 58.9521 280.821 59.9761C283.295 61.0001 285.77 62.0454 288.245 63.1121C290.762 64.1787 292.874 65.5441 294.581 67.2081C296.33 68.8721 297.205 70.7921 297.205 72.9681C297.205 77.2347 296.138 80.4134 294.005 82.5041C291.914 84.5947 288.309 85.6401 283.189 85.6401C279.007 85.6401 275.722 84.8081 273.333 83.1441C270.943 81.4374 269.301 78.8134 268.405 75.2721L270.197 74.5041C271.05 77.9601 272.501 80.3707 274.549 81.7361C276.639 83.0587 279.519 83.7201 283.189 83.7201C287.285 83.7201 290.314 82.9307 292.277 81.3521C294.282 79.7734 295.285 76.9787 295.285 72.9681C295.285 71.0907 294.41 69.4267 292.661 67.9761C290.954 66.5254 288.842 65.2881 286.325 64.2641C283.85 63.2401 281.375 62.1947 278.901 61.1281C276.426 60.0614 274.314 58.6961 272.565 57.0321C270.858 55.3681 270.005 53.4481 270.005 51.2721Z" fill="black"/>
<path d="M239.506 85H237.586V40.2H239.506V85Z" fill="black"/>
<path d="M211.076 83.08V85H184.324V40.2H186.244V83.08H211.076Z" fill="black"/>
<path d="M119.735 40.2V42.12H104.695V85H102.775V42.12H87.735V40.2H119.735Z" fill="black"/>
<path d="M61.2685 85H59.3485V40.2H61.2685V85Z" fill="black"/>
<path d="M31 40L32.728 40.2L16.408 85.064L0.0880127 40.2H2.13601L16.408 79.432L29.976 42.12L31 40Z" fill="black"/>
</svg>
