<svg width="120" height="40" viewBox="0 0 120 40" fill="none" xmlns="http://www.w3.org/2000/svg">
<path d="M51.8709 10.0651H52.5781L47.3978 24.1564L42.2175 10.0651H42.8676L47.3978 22.3875L51.7046 10.6682L51.8709 10.0651Z" fill="#5EAF6B"/>
<path d="M53.7566 25.9563L53.7941 26.0584L47.3339 8.47944L40.5385 26.963H39.5634L47.3339 5.82601L55.1044 26.963H54.0925L53.7566 25.9563Z" fill="#5EAF6B"/>
<path d="M83.2423 1.00863C79.1793 2.85129 76.2167 6.49473 70.2068 16.8806C66.6517 23.0368 62.2925 26.4708 59.9647 27.434C55.6795 28.8474 53.0715 21.7317 52.5052 20.6811C51.2356 18.3254 51.2356 17.0203 51.553 19.8959C52.0292 22.4086 53.849 28.0622 55.8382 29.3186C58.0813 30.7006 60.7583 30.5016 63.2977 29.1615C66.091 27.6958 70.4608 24.2094 74.2699 18.1789C78.1212 12.0646 81.2531 8.5049 84.1311 6.99727C85.6124 6.20158 86.5858 6.03406 89.9717 6.03406C93.6961 6.03406 94.204 6.1597 96.7433 7.41606C98.267 8.16987 100.341 9.50999 101.357 10.3894L103.219 11.9808L98.3939 12.0227C94.7118 12.0227 92.8496 12.2321 90.7335 12.9022C82.1419 15.5824 76.0897 23.2881 72.7462 35.8516C72.1537 38.0293 71.7305 39.9139 71.8574 39.9976C71.9421 40.0814 73.0002 37.9456 74.1852 35.2653C79.5602 23.1205 85.6124 17.3832 94.077 16.3362C98.6902 15.7499 102.288 16.42 111.218 19.3933C115.662 20.901 119.428 22.0317 119.64 21.9061C120.656 21.2779 119.386 15.3311 117.524 11.9808C116.424 9.97065 111.853 4.9871 111.091 4.9871C110.922 4.9871 111.049 5.90843 111.387 7.08103C112.234 9.97065 111.556 11.4364 109.271 11.6039C107.112 11.7714 105.504 10.9339 98.7748 5.82467C90.8181 -0.122095 87.7709 -1.0853 83.2423 1.00863Z" fill="#5EAF6B"/>
<path d="M92.7646 20.0981L91.2832 20.5588L93.8226 21.1451C96.8699 21.857 97.928 22.7783 98.2242 25.0817L98.4782 26.8406L99.8748 25.7098C101.525 24.286 101.652 22.6527 100.256 21.0194C99.4093 20.0562 98.8591 19.8468 96.7429 19.7631C95.3886 19.6793 93.5687 19.8468 92.7646 20.0981Z" fill="#5EAF6B"/>
<path d="M85.6776 16.0553C85.6776 14.7554 86.0094 13.8173 86.6731 13.2411C87.3367 12.6648 88.4134 12.3767 89.9032 12.3767C90.946 12.3767 91.7857 12.6447 92.4222 13.1808C93.0588 13.7168 93.5192 14.5343 93.8036 15.6332L91.9144 17.0403H90.9189L93.1129 15.412C92.8285 14.5142 92.4154 13.8843 91.8737 13.5225C91.3455 13.1606 90.6887 12.9797 89.9032 12.9797C89.3614 12.9797 88.9009 13.0132 88.5217 13.0802C88.1561 13.1472 87.7836 13.2813 87.4044 13.4823C87.0387 13.6699 86.7611 13.9781 86.5715 14.407C86.3819 14.8358 86.2871 15.3852 86.2871 16.0553C86.2871 16.6449 86.5579 17.1676 87.0997 17.6232C87.655 18.0789 88.3254 18.4675 89.1109 18.7891C89.8964 19.1108 90.6819 19.4391 91.4674 19.7741C92.2665 20.1091 92.9369 20.538 93.4786 21.0606C94.0339 21.5833 94.3115 22.1863 94.3115 22.8698C94.3115 24.2099 93.9729 25.2083 93.2958 25.8649C92.6321 26.5216 91.4877 26.8499 89.8625 26.8499C88.5353 26.8499 87.4924 26.5886 86.734 26.066C85.9756 25.5299 85.4542 24.7057 85.1698 23.5934L85.7386 23.3522C86.0094 24.4377 86.4699 25.1949 87.12 25.6237C87.7836 26.0392 88.6978 26.2469 89.8625 26.2469C91.1627 26.2469 92.1243 25.999 92.7473 25.5031C93.3838 25.0073 93.7021 24.1295 93.7021 22.8698C93.7021 22.2801 93.4244 21.7575 92.8692 21.3019C92.3274 20.8462 91.657 20.4576 90.858 20.136C90.0724 19.8143 89.2869 19.486 88.5014 19.151C87.7159 18.8159 87.0455 18.3871 86.4902 17.8645C85.9485 17.3418 85.6776 16.7388 85.6776 16.0553Z" fill="#1A1A1A"/>
<path d="M75.9964 26.649H75.387V12.5778H75.9964V26.649Z" fill="#1A1A1A"/>
<path d="M66.9719 26.046V26.649H58.4803V12.5778H59.0897V26.046H66.9719Z" fill="#1A1A1A"/>
<path d="M37.9788 12.5778V13.1809H33.2048V26.649H32.5954V13.1809H27.8213V12.5778H37.9788Z" fill="#1A1A1A"/>
<path d="M19.4205 26.649H18.811V12.5778H19.4205V26.649Z" fill="#1A1A1A"/>
<path d="M9.81215 12.5151L10.3607 12.5779L5.18033 26.6693L0 12.5779H0.650081L5.18033 24.9003L9.48712 13.181L9.81215 12.5151Z" fill="#1A1A1A"/>
</svg>
