<svg width="996" height="970" viewBox="0 0 996 970" fill="none" xmlns="http://www.w3.org/2000/svg">
<path d="M991.185 470.588C980.453 359.327 924.574 248.336 876.361 187.028C672.051 -72.7879 261.981 -72.2906 66.6836 254.054C11.5918 346.088 -22.9882 550.729 17.9318 702.081C70.2887 895.804 276.608 971.242 506.05 969.563C720.43 967.906 888.999 874.691 952.109 745.923C991.6 665.264 1001.92 581.849 991.185 470.588Z" fill="#37474F"/>
<path d="M66.6836 254.054C11.5918 346.088 -22.9882 550.729 17.9318 702.081C26.5482 734.577 40.427 765.442 59.0175 793.452L286.926 661.949L480.96 549.776L937.026 286.5C918.047 247.134 896.541 212.699 876.361 187.049C672.051 -72.7879 261.981 -72.2907 66.6836 254.054Z" fill="#263238"/>
<g opacity="0.2">
<path d="M67.0358 410.358C69.3625 408.842 71.2992 406.798 72.6887 404.394C74.0782 401.989 74.8815 399.291 75.0333 396.518V380.357C75.0333 375.26 71.4489 373.188 67.0358 375.737L14.2645 406.214C11.8404 418.646 9.68563 431.512 7.82092 444.544L67.0358 410.358Z" fill="black"/>
<path d="M48.223 290.872L67.0358 279.994C69.3626 278.478 71.2992 276.435 72.6887 274.03C74.0782 271.625 74.8815 268.927 75.0333 266.154V249.993C75.1564 248.952 74.9731 247.897 74.5057 246.959C74.0383 246.02 73.3072 245.239 72.402 244.71C70.4821 247.79 68.5759 250.905 66.6836 254.054C59.69 265.887 53.5218 278.189 48.223 290.872Z" fill="black"/>
<path d="M147.384 148.719L163.338 139.499C165.657 137.987 167.588 135.949 168.974 133.552C170.36 131.155 171.162 128.465 171.314 125.7C163.137 133.007 155.161 140.68 147.384 148.719Z" fill="black"/>
<path d="M75.0333 566.558V550.398C75.0333 545.301 71.4489 543.229 67.0358 545.777L0.735046 584.107C1.17705 595.213 1.92293 606.291 2.9727 617.341L67.0358 580.357C69.3571 578.845 71.2904 576.808 72.6796 574.411C74.0688 572.014 74.8751 569.324 75.0333 566.558Z" fill="black"/>
<path d="M267.554 325.203V309.042C267.554 303.945 263.97 301.873 259.557 304.422L185.59 347.124C183.266 348.641 181.332 350.685 179.946 353.09C178.56 355.495 177.761 358.192 177.613 360.964V377.125C177.613 382.222 181.177 384.294 185.59 381.745L259.557 339.043C261.883 337.527 263.82 335.484 265.21 333.079C266.599 330.674 267.402 327.976 267.554 325.203Z" fill="black"/>
<path d="M19.8172 708.608C21.3919 713.933 23.0494 719.195 24.8519 724.354V714.243C24.8519 710.369 22.7593 708.256 19.8172 708.608Z" fill="black"/>
<path d="M20.3352 519.298C22.6593 517.781 24.5928 515.737 25.9787 513.332C27.3647 510.927 28.1641 508.23 28.312 505.458V489.297C28.312 484.2 24.7483 482.129 20.3352 484.677L2.35112 495.099C1.41186 506.95 0.769572 518.863 0.424255 530.839L20.3352 519.298Z" fill="black"/>
<path d="M281.767 241.333L355.713 198.631C358.04 197.114 359.977 195.071 361.366 192.666C362.756 190.262 363.559 187.564 363.711 184.79V168.609C363.711 163.533 360.127 161.461 355.713 164.009L281.767 206.711C279.441 208.227 277.504 210.271 276.114 212.675C274.725 215.08 273.922 217.778 273.77 220.551V236.712C273.77 241.809 277.354 243.881 281.767 241.333Z" fill="black"/>
<path d="M331.265 510.182L405.232 467.48C407.554 465.966 409.487 463.926 410.873 461.524C412.259 459.123 413.059 456.429 413.209 453.661V437.479C413.209 432.382 409.645 430.331 405.232 432.88L331.265 475.581C328.943 477.096 327.01 479.136 325.624 481.537C324.238 483.938 323.438 486.633 323.288 489.401V505.582C323.288 510.679 326.852 512.731 331.265 510.182Z" fill="black"/>
<path d="M138.827 196.02L212.773 153.235C215.1 151.719 217.037 149.676 218.426 147.271C219.816 144.867 220.619 142.168 220.771 139.395V123.234C220.771 118.137 217.186 116.066 212.773 118.614L138.827 161.399C136.496 162.913 134.556 164.955 133.163 167.36C131.769 169.765 130.963 172.464 130.809 175.239V191.4C130.809 196.497 134.414 198.569 138.827 196.02Z" fill="black"/>
<path d="M273.77 321.722C273.77 326.819 277.354 328.891 281.767 326.343L355.713 283.641C358.04 282.124 359.977 280.081 361.366 277.676C362.756 275.272 363.559 272.574 363.711 269.8V253.64C363.711 248.543 360.127 246.471 355.713 249.019L281.767 291.721C279.441 293.237 277.504 295.281 276.114 297.685C274.725 300.09 273.922 302.788 273.77 305.561V321.722Z" fill="black"/>
<path d="M163.275 529.989L89.3709 572.691C87.0441 574.208 85.1074 576.251 83.7179 578.656C82.3284 581.06 81.5252 583.758 81.3733 586.532V602.692C81.3733 607.789 84.9577 609.861 89.3709 607.313L163.338 564.611C165.662 563.093 167.595 561.049 168.981 558.645C170.367 556.24 171.167 553.542 171.314 550.771V534.61C171.252 529.513 167.689 527.441 163.275 529.989Z" fill="black"/>
<path d="M459.412 1.30316C437.22 2.94491 415.169 6.13652 393.422 10.8546L377.986 19.7638C375.66 21.2801 373.723 23.3234 372.333 25.7281C370.944 28.1327 370.141 30.831 369.989 33.604V49.7856C369.989 54.8825 373.573 56.9336 377.986 54.3852L451.953 11.6834C455.643 9.27066 458.302 5.57005 459.412 1.30316Z" fill="black"/>
<path d="M220.771 479.559V463.399C220.771 458.302 217.186 456.23 212.773 458.778L138.827 501.48C136.496 502.994 134.556 505.036 133.163 507.441C131.769 509.846 130.963 512.545 130.809 515.32V531.481C130.809 536.578 134.393 538.65 138.806 536.102L212.752 493.4C215.083 491.886 217.024 489.843 218.417 487.439C219.81 485.034 220.616 482.334 220.771 479.559Z" fill="black"/>
<path d="M316.99 594.135V577.975C316.99 572.878 313.426 570.806 309.013 573.354L235.046 616.056C232.719 617.572 230.783 619.616 229.393 622.02C228.004 624.425 227.2 627.123 227.048 629.896V646.057C227.048 651.154 230.633 653.226 235.046 650.678L308.992 607.976C311.32 606.461 313.258 604.418 314.647 602.013C316.037 599.608 316.839 596.909 316.99 594.135Z" fill="black"/>
<path d="M570.424 415.02L644.391 372.318C646.718 370.802 648.654 368.758 650.044 366.354C651.433 363.949 652.237 361.251 652.389 358.478V342.317C652.389 337.22 648.804 335.148 644.391 337.697L570.424 380.398C568.1 381.916 566.167 383.96 564.781 386.365C563.395 388.769 562.595 391.467 562.447 394.239V410.399C562.447 415.496 566.011 417.568 570.424 415.02Z" fill="black"/>
<path d="M619.943 428.798L693.909 386.096C696.233 384.579 698.167 382.535 699.553 380.13C700.939 377.725 701.738 375.027 701.886 372.256V356.095C701.886 350.998 698.323 348.926 693.909 351.475L619.943 394.176C617.616 395.693 615.679 397.736 614.29 400.141C612.9 402.545 612.097 405.244 611.945 408.017V424.178C611.945 429.295 615.633 431.367 619.943 428.798Z" fill="black"/>
<path d="M562.447 186.8V202.961C562.447 208.058 566.011 210.13 570.424 207.581L644.391 164.88C646.718 163.363 648.654 161.32 650.044 158.915C651.433 156.511 652.237 153.812 652.389 151.039V134.878C652.389 129.782 648.804 127.71 644.391 130.258L570.424 172.96C568.1 174.477 566.167 176.521 564.781 178.926C563.395 181.331 562.595 184.029 562.447 186.8Z" fill="black"/>
<path d="M612.608 33.0654C610.281 34.5817 608.345 36.625 606.955 39.0297C605.566 41.4343 604.762 44.1326 604.611 46.9056V63.0872C604.611 68.1633 608.195 70.2352 612.608 67.6868L671.346 33.6869C659.067 28.8249 646.587 24.4739 633.907 20.634L612.608 33.0654Z" fill="black"/>
<path d="M597.67 114.512L523.724 157.213C521.397 158.73 519.46 160.773 518.071 163.178C516.681 165.582 515.878 168.281 515.726 171.054V187.215C515.726 192.311 519.31 194.383 523.724 191.835L597.67 149.092C599.996 147.575 601.933 145.532 603.323 143.127C604.712 140.723 605.515 138.024 605.667 135.251V119.091C605.667 114.035 602.083 111.963 597.67 114.512Z" fill="black"/>
<path d="M701.886 186.075C701.886 180.978 698.323 178.906 693.909 181.455L619.943 224.157C617.616 225.673 615.679 227.716 614.29 230.121C612.9 232.525 612.097 235.224 611.945 237.997V254.158C611.945 259.255 615.529 261.326 619.943 258.778L693.909 216.076C696.233 214.559 698.167 212.515 699.553 210.11C700.939 207.705 701.738 205.007 701.886 202.236V186.075Z" fill="black"/>
<path d="M886.347 240.587L812.463 283.268C810.137 284.784 808.2 286.827 806.81 289.232C805.421 291.637 804.618 294.335 804.466 297.108V313.29C804.466 318.386 808.029 320.438 812.443 317.889L886.409 275.187C888.736 273.671 890.673 271.628 892.062 269.223C893.452 266.818 894.255 264.12 894.407 261.347V245.186C894.345 240.089 890.76 238.038 886.347 240.587Z" fill="black"/>
<path d="M885.291 198.817L859.102 213.983C856.775 215.5 854.838 217.543 853.449 219.948C852.059 222.352 851.256 225.051 851.104 227.824V243.985C851.104 249.081 854.689 251.153 859.102 248.605L902.197 223.742C896.548 214.861 890.912 206.552 885.291 198.817Z" fill="black"/>
<path d="M509.448 313.165V297.004C509.448 291.908 505.864 289.836 501.451 292.384L427.484 335.086C425.162 336.606 423.23 338.65 421.845 341.055C420.459 343.459 419.658 346.155 419.507 348.926V365.087C419.507 370.184 423.092 372.256 427.484 369.707L501.451 327.006C503.777 325.489 505.714 323.446 507.104 321.041C508.493 318.637 509.296 315.938 509.448 313.165Z" fill="black"/>
<path d="M790.128 125.99L716.162 168.692C713.837 170.209 711.904 172.253 710.518 174.658C709.132 177.063 708.333 179.76 708.185 182.532V198.693C708.185 203.79 711.748 205.862 716.162 203.313L790.128 160.611C792.455 159.095 794.392 157.052 795.781 154.647C797.171 152.242 797.974 149.544 798.126 146.771V130.61C798.126 125.513 794.541 123.442 790.128 125.99Z" fill="black"/>
<path d="M451.953 448.626L377.986 491.328C375.66 492.844 373.723 494.887 372.333 497.292C370.944 499.697 370.141 502.395 369.989 505.168V521.329C369.989 526.426 373.573 528.498 377.986 525.949L451.953 483.247C454.28 481.731 456.216 479.688 457.606 477.283C458.995 474.878 459.799 472.18 459.951 469.407V453.246C459.93 448.149 456.345 446.078 451.953 448.626Z" fill="black"/>
<path d="M66.3728 758.064C68.6968 756.547 70.6303 754.503 72.0163 752.098C73.4023 749.693 74.2017 746.995 74.3496 744.224V728.063C74.3496 722.966 70.7859 720.894 66.3728 723.443L32.1243 743.208C36.0121 752.454 40.3616 761.499 45.1565 770.309L66.3728 758.064Z" fill="black"/>
<path d="M754.885 283.309V299.47C754.885 304.567 758.47 306.639 762.883 304.09L836.829 261.389C839.156 259.872 841.092 257.829 842.482 255.424C843.871 253.02 844.675 250.321 844.826 247.548V231.387C844.826 226.291 841.242 224.219 836.829 226.767L762.883 269.469C760.556 270.985 758.619 273.029 757.23 275.433C755.84 277.838 755.037 280.536 754.885 283.309Z" fill="black"/>
</g>
<path opacity="0.15" d="M328.654 802.423C327.828 801.95 326.978 801.521 326.106 801.139L326.417 800.952L181.384 721.599V668.206L148.731 687.039V740.432L283.28 814.047C283.57 817.735 286.139 821.402 291.029 824.22C301.388 830.228 318.233 830.228 328.634 824.22C333.855 821.236 336.445 817.258 336.445 813.301C336.445 809.343 333.855 805.407 328.654 802.423Z" fill="black"/>
<path opacity="0.15" d="M286.077 828.115C285.246 827.638 284.388 827.209 283.508 826.83L283.819 826.644L138.786 747.29V694.001L106.174 712.648V766.041L240.723 839.655C241.013 843.343 243.562 847.011 248.472 849.828C258.831 855.837 275.676 855.837 286.077 849.828C291.298 846.824 293.888 842.867 293.888 838.909C293.888 834.952 291.298 831.098 286.077 828.115Z" fill="black"/>
<path opacity="0.15" d="M779.686 922.49C765.268 913.817 749.7 907.219 733.441 902.89C712.598 896.923 687.859 892.53 670.207 885.299C647.167 875.913 636.849 862.011 636.166 846.596C635.772 837.873 639.481 827.576 658.086 818.356C663.534 815.63 669.315 813.631 675.283 812.41C683.62 810.878 692.16 810.815 700.519 812.223C738.062 817.776 755.776 832.238 770.217 846.679C784.658 861.12 800.695 868.372 829.266 879.829C841.491 884.698 854.502 889.319 866.126 894.333L866.395 894.457C872.229 896.687 877.912 899.296 883.405 902.268C890.988 907.033 897.805 912.11 901.182 918.035C904.559 923.961 904.311 930.84 898.053 938.153C895.984 940.625 893.337 942.546 890.346 943.747C886.55 945.273 882.596 946.37 878.557 947.021C870.618 948.46 862.543 949.009 854.481 948.658C848.094 948.326 841.746 947.46 835.503 946.068C815.575 941.804 796.636 933.803 779.686 922.49Z" fill="black"/>
<path d="M175.479 660.415L186.129 666.631L164.788 703.49L154.138 697.274C151.403 695.7 149.725 692.323 149.725 687.516C150.006 682.284 151.516 677.191 154.133 672.652C156.75 668.112 160.401 664.254 164.788 661.389C168.973 659.048 172.744 658.779 175.479 660.415Z" fill="#0E2512"/>
<path d="M160.375 693.732C160.66 688.498 162.174 683.405 164.794 678.866C167.415 674.326 171.068 670.469 175.458 667.605C183.746 662.798 190.542 666.693 190.542 676.307C190.257 681.541 188.743 686.633 186.122 691.173C183.502 695.712 179.848 699.57 175.458 702.434C167.129 707.24 160.375 703.345 160.375 693.732Z" fill="#263238"/>
<g opacity="0.3">
<path d="M164.788 691.183C164.988 687.481 166.059 683.877 167.913 680.666C169.767 677.455 172.352 674.726 175.458 672.702C181.342 669.304 186.129 672.06 186.129 678.917C185.928 682.62 184.858 686.223 183.004 689.434C181.15 692.646 178.565 695.374 175.458 697.399C169.574 700.735 164.788 697.979 164.788 691.183Z" fill="black"/>
</g>
<g opacity="0.3">
<path d="M178.587 674.504C178.387 678.207 177.316 681.81 175.462 685.021C173.608 688.232 171.023 690.961 167.917 692.986C167.06 693.467 166.149 693.842 165.202 694.104C164.928 693.155 164.789 692.171 164.788 691.183C164.988 687.481 166.059 683.877 167.913 680.666C169.767 677.455 172.352 674.726 175.458 672.702C176.32 672.217 177.239 671.841 178.193 671.583C178.45 672.536 178.582 673.518 178.587 674.504Z" fill="black"/>
</g>
<path d="M167.917 698.145L292.914 770.392C293.491 770.722 293.971 771.199 294.305 771.773C294.64 772.348 294.818 773.001 294.82 773.665V816.429H324.987V779.28V769.646C324.989 764.896 323.74 760.229 321.365 756.115C318.989 752.001 315.572 748.586 311.458 746.213L183 671.977C181.792 671.415 180.456 671.186 179.13 671.314C177.805 671.441 176.537 671.92 175.458 672.702C172.352 674.726 169.767 677.455 167.913 680.666C166.059 683.877 164.988 687.481 164.788 691.183C164.636 692.52 164.849 693.872 165.403 695.098C165.958 696.323 166.833 697.376 167.937 698.145H167.917Z" fill="#0E2512"/>
<path d="M324.987 771.075C324.979 768.981 324.721 766.894 324.221 764.86C324.324 765.668 324.656 771.428 313.571 775.116C301.595 779.094 294.82 775.116 294.82 775.116V816.45H324.987V780.71V771.075Z" fill="#37474F"/>
<g opacity="0.3">
<path d="M167.917 698.145L292.914 770.392C293.491 770.722 293.971 771.199 294.305 771.773C294.64 772.348 294.817 773.001 294.82 773.665V816.429H306.009V784.501V780.358C306.002 775.599 304.742 770.926 302.356 766.809C299.97 762.692 296.542 759.276 292.417 756.904L166.425 684.076C165.45 686.326 164.895 688.734 164.788 691.183C164.636 692.52 164.849 693.872 165.403 695.098C165.958 696.323 166.833 697.376 167.937 698.145H167.917Z" fill="black"/>
</g>
<path d="M331.244 799.233V811.56C331.244 814.73 329.172 817.921 325.029 820.325C320.346 822.705 315.167 823.945 309.914 823.945C304.661 823.945 299.482 822.705 294.8 820.325C290.656 817.921 288.584 814.73 288.584 811.581V799.15H294.945C294.973 799.978 295.172 800.792 295.529 801.54C295.885 802.289 296.391 802.956 297.017 803.501L297.534 803.998C298.111 804.49 298.728 804.934 299.378 805.324C302.687 807.009 306.347 807.887 310.059 807.887C313.772 807.887 317.431 807.009 320.74 805.324C321.394 804.939 322.011 804.495 322.584 803.998L323.102 803.501C323.726 802.955 324.232 802.288 324.588 801.54C324.944 800.791 325.144 799.978 325.174 799.15L331.244 799.233Z" fill="#263238"/>
<path d="M331.244 799.233C331.244 802.382 329.172 805.573 325.029 807.976C320.343 810.347 315.165 811.582 309.914 811.582C304.663 811.582 299.485 810.347 294.8 807.976C290.656 805.573 288.584 802.382 288.584 799.233C288.584 796.083 290.656 792.913 294.8 790.51V799.295C294.828 800.123 295.027 800.937 295.384 801.685C295.74 802.434 296.246 803.101 296.871 803.646L297.389 804.143C297.966 804.635 298.583 805.079 299.233 805.469C302.542 807.154 306.202 808.032 309.914 808.032C313.627 808.032 317.286 807.154 320.595 805.469C321.249 805.084 321.866 804.64 322.439 804.143L322.957 803.646C323.581 803.1 324.087 802.433 324.443 801.685C324.799 800.936 324.999 800.123 325.029 799.295V790.572C329.172 792.913 331.244 796.083 331.244 799.233Z" fill="#0E2512"/>
<path d="M131.928 685.568L142.577 691.784L121.257 728.643L110.587 722.427C107.852 720.853 106.174 717.476 106.174 712.669C106.459 707.435 107.973 702.342 110.593 697.803C113.214 693.264 116.867 689.406 121.257 686.542C125.422 684.201 129.213 683.973 131.928 685.568Z" fill="#0E2512"/>
<path d="M116.824 718.864C117.108 713.63 118.622 708.537 121.243 703.998C123.864 699.459 127.517 695.601 131.907 692.737C140.195 687.93 146.99 691.825 146.99 701.439C146.706 706.673 145.192 711.766 142.571 716.305C139.95 720.844 136.297 724.702 131.907 727.566C123.578 732.393 116.824 728.498 116.824 718.864Z" fill="#263238"/>
<g opacity="0.3">
<path d="M121.257 716.336C121.457 712.636 122.525 709.034 124.375 705.823C126.225 702.613 128.805 699.883 131.907 697.855C137.812 694.457 142.577 697.212 142.577 704.07C142.38 707.774 141.311 711.378 139.457 714.59C137.603 717.802 135.016 720.53 131.907 722.552C126.023 725.887 121.257 723.132 121.257 716.336Z" fill="black"/>
</g>
<g opacity="0.3">
<path d="M134.953 699.657C134.756 703.361 133.687 706.965 131.832 710.177C129.978 713.388 127.391 716.116 124.282 718.139C123.428 718.623 122.516 718.999 121.568 719.257C121.312 718.305 121.179 717.323 121.174 716.336C121.374 712.636 122.442 709.034 124.292 705.823C126.142 702.613 128.723 699.883 131.824 697.855C132.687 697.373 133.606 696.997 134.559 696.736C134.815 697.689 134.948 698.671 134.953 699.657Z" fill="black"/>
</g>
<path d="M124.386 723.256L249.384 795.524C249.955 795.859 250.43 796.337 250.76 796.911C251.091 797.485 251.266 798.135 251.269 798.798V840.132H281.436V804.433V794.799C281.436 790.049 280.185 785.383 277.81 781.27C275.436 777.156 272.02 773.74 267.906 771.366L139.449 697.13C138.237 696.568 136.898 696.34 135.569 696.467C134.24 696.594 132.969 697.073 131.886 697.855C128.785 699.883 126.204 702.613 124.354 705.823C122.504 709.034 121.436 712.636 121.237 716.336C121.099 717.66 121.316 718.997 121.866 720.21C122.416 721.422 123.278 722.467 124.365 723.235L124.386 723.256Z" fill="#0E2512"/>
<path d="M281.436 794.799C281.427 792.704 281.17 790.617 280.669 788.583C280.794 789.412 281.104 795.151 270.02 798.839C258.044 802.817 251.269 798.839 251.269 798.839V840.173H281.436V804.433V794.799Z" fill="#37474F"/>
<g opacity="0.3">
<path d="M124.386 723.256L249.384 795.524C249.955 795.859 250.43 796.337 250.76 796.911C251.091 797.485 251.266 798.135 251.269 798.798V840.132H262.457V809.675V805.531C262.461 800.775 261.21 796.103 258.831 791.985C256.452 787.867 253.029 784.45 248.907 782.077L122.894 709.229C121.909 711.475 121.354 713.886 121.257 716.336C121.12 717.66 121.337 718.997 121.887 720.21C122.436 721.422 123.299 722.467 124.386 723.235V723.256Z" fill="black"/>
</g>
<path d="M287.714 824.385V836.713C287.714 839.883 285.642 843.074 281.498 845.477C276.812 847.858 271.629 849.098 266.373 849.098C261.117 849.098 255.935 847.858 251.248 845.477C247.104 843.074 245.033 839.883 245.033 836.734V824.303H251.393C251.418 825.132 251.616 825.947 251.972 826.696C252.329 827.445 252.837 828.111 253.465 828.654C253.62 828.829 253.787 828.996 253.962 829.151C254.534 829.65 255.152 830.094 255.806 830.477C259.118 832.162 262.782 833.04 266.497 833.04C270.213 833.04 273.877 832.162 277.188 830.477C277.84 830.089 278.457 829.645 279.032 829.151C279.219 828.985 279.364 828.819 279.53 828.654C280.147 828.103 280.649 827.434 281.004 826.687C281.36 825.94 281.563 825.129 281.602 824.303L287.714 824.385Z" fill="#263238"/>
<path d="M287.714 824.385C287.714 827.535 285.642 830.725 281.498 833.129C276.809 835.5 271.628 836.735 266.373 836.735C261.119 836.735 255.938 835.5 251.248 833.129C247.104 830.725 245.033 827.535 245.033 824.385C245.033 821.236 247.104 818.066 251.248 815.663V824.448C251.273 825.277 251.471 826.092 251.827 826.841C252.184 827.59 252.692 828.256 253.32 828.799C253.475 828.975 253.641 829.141 253.817 829.296C254.389 829.795 255.006 830.239 255.661 830.622C258.973 832.307 262.637 833.185 266.352 833.185C270.068 833.185 273.732 832.307 277.043 830.622C277.695 830.234 278.312 829.79 278.887 829.296C279.074 829.13 279.219 828.964 279.385 828.799C280.002 828.248 280.504 827.579 280.859 826.832C281.215 826.085 281.418 825.274 281.457 824.448V815.725C285.621 818.066 287.714 821.236 287.714 824.385Z" fill="#0E2512"/>
<path d="M477.748 211C477.748 146.771 455.185 101.624 418.741 80.574C382.296 59.5235 331.928 62.5692 276.277 94.7043C165.016 158.933 74.8676 315.154 74.8676 443.633C74.8676 507.862 97.4305 553.008 133.875 574.038C170.32 595.068 220.688 592.043 276.339 559.928C387.558 495.7 477.748 339.478 477.748 211Z" fill="#48B75A"/>
<path opacity="0.95" d="M477.748 211C477.748 146.771 455.185 101.624 418.741 80.574C382.296 59.5235 331.928 62.5692 276.277 94.7043C165.016 158.933 74.8676 315.154 74.8676 443.633C74.8676 507.862 97.4305 553.008 133.875 574.038C170.32 595.068 220.688 592.043 276.339 559.928C387.558 495.7 477.748 339.478 477.748 211Z" fill="white"/>
<g opacity="0.2">
<path d="M163.275 529.989L113.736 558.582C119.73 564.591 126.487 569.787 133.834 574.038C136.071 575.343 138.351 576.545 140.692 577.643L163.275 564.611C165.6 563.093 167.533 561.049 168.919 558.645C170.305 556.24 171.104 553.542 171.252 550.771V534.61C171.252 529.513 167.689 527.441 163.275 529.989Z" fill="#48B75A"/>
<path d="M273.77 236.712C273.77 241.809 277.354 243.881 281.767 241.333L355.713 198.631C358.04 197.114 359.977 195.071 361.366 192.666C362.756 190.262 363.559 187.564 363.711 184.79V168.609C363.711 163.533 360.127 161.461 355.713 164.009L281.767 206.711C279.441 208.227 277.504 210.271 276.114 212.675C274.725 215.08 273.922 217.778 273.77 220.551V236.712Z" fill="#48B75A"/>
<path d="M355.713 249.019L281.767 291.721C279.441 293.237 277.504 295.281 276.114 297.685C274.725 300.09 273.922 302.788 273.77 305.561V321.722C273.77 326.819 277.354 328.891 281.767 326.343L355.713 283.641C358.04 282.124 359.977 280.081 361.366 277.676C362.756 275.272 363.559 272.574 363.711 269.8V253.64C363.711 248.543 360.127 246.471 355.713 249.019Z" fill="#48B75A"/>
<path d="M220.771 139.478V135.707C210.299 145.286 200.327 155.396 190.894 165.998L212.773 153.235C215.089 151.727 217.019 149.697 218.408 147.308C219.797 144.919 220.606 142.237 220.771 139.478Z" fill="#48B75A"/>
<path d="M403.885 433.646L331.265 475.581C328.943 477.096 327.01 479.136 325.624 481.537C324.238 483.938 323.438 486.633 323.288 489.401V505.582C323.288 510.679 326.852 512.731 331.265 510.182L354.056 497.005C372.477 477.375 389.15 456.175 403.885 433.646Z" fill="#48B75A"/>
<path d="M427.484 335.086C425.162 336.606 423.23 338.65 421.845 341.055C420.459 343.459 419.658 346.155 419.507 348.926V365.087C419.507 370.184 423.092 372.256 427.484 369.707L443.541 360.446C449.825 345.997 455.358 331.232 460.116 316.211L427.484 335.086Z" fill="#48B75A"/>
<path d="M220.771 479.559V463.399C220.771 458.302 217.186 456.23 212.773 458.778L138.827 501.48C136.496 502.994 134.556 505.036 133.163 507.441C131.769 509.846 130.963 512.545 130.809 515.32V531.481C130.809 536.578 134.393 538.65 138.806 536.102L212.752 493.4C215.083 491.886 217.024 489.843 218.417 487.439C219.81 485.034 220.616 482.334 220.771 479.559Z" fill="#48B75A"/>
<path d="M259.494 304.484L185.528 347.186C183.204 348.703 181.27 350.747 179.884 353.152C178.498 355.557 177.699 358.254 177.551 361.026V377.187C177.551 382.284 181.115 384.356 185.528 381.807L259.494 339.105C261.841 337.59 263.795 335.54 265.196 333.123C266.597 330.707 267.405 327.992 267.554 325.203V309.042C267.554 304.007 263.908 301.936 259.494 304.484Z" fill="#48B75A"/>
</g>
<path opacity="0.2" d="M606.227 517.04L208.422 585.578C180.12 590.24 154.719 586.096 133.834 574.059C97.3891 552.987 74.8676 507.862 74.8676 443.633C74.8676 315.175 165.078 158.933 276.339 94.6836C331.969 62.5692 382.337 59.4613 418.782 80.574C439.625 92.6117 455.91 112.523 466.042 139.374L606.227 517.04Z" fill="#48B75A"/>
<path opacity="0.2" d="M606.227 517.04L208.422 585.578C180.12 590.24 154.719 586.096 133.834 574.059C97.3891 552.987 74.8676 507.862 74.8676 443.633C74.8676 315.175 165.078 158.933 276.339 94.6836C331.969 62.5692 382.337 59.4613 418.782 80.574C439.625 92.6117 455.91 112.523 466.042 139.374L606.227 517.04Z" fill="white"/>
<path d="M874.372 505.873L854.171 457.991C844.516 433.315 848.141 399.978 848.141 399.978C859.765 399.771 870.663 403.707 878.205 417.361C885.746 431.015 900.623 479.518 904.021 490.064C907.045 499.135 908.72 508.601 908.993 518.159C909.656 530.342 906.548 552.76 905.74 564.88C905.367 570.495 905.429 575.882 905.45 581.455C905.471 587.029 903.958 593.058 903.171 598.921C902.707 601.694 901.521 604.295 899.732 606.463C898.613 607.851 896.831 608.307 895.774 609.612C894.718 610.918 894.738 612.845 893.122 614.046C891.506 615.248 888.979 615.186 887.466 616.512C886.011 618.083 884.461 619.564 882.825 620.946C881.231 621.739 879.858 622.913 878.826 624.364C877.935 625.794 877.355 628.736 875.304 628.902C873.253 629.068 872.238 626.975 871.782 625.11C871.179 621.409 871.774 617.613 873.481 614.274C875.221 610.793 876.133 606.96 878.288 603.708C880.064 600.488 881.104 596.914 881.333 593.244C881.603 590.779 880.836 587.837 878.08 589.764C874.828 592.022 871.699 596.104 867.307 596.166C864.261 596.166 863.681 593.907 865.027 591.649C867.265 587.931 869.224 584.053 870.891 580.046C872.59 575.903 873.854 571.759 875.677 567.719C876.664 565.608 877.792 563.566 879.054 561.607C882.473 556.116 881.126 549.735 880.525 543.685C879.655 535.293 876.216 516.584 874.372 505.873Z" fill="#FFA8A7"/>
<path d="M846.173 398.072C862.562 399.294 871.72 402.651 880.463 418.791C889.207 434.931 900.871 473.841 903.42 481.859C906.726 491.535 908.814 501.585 909.635 511.777C910.1 517.616 910.142 523.481 909.76 529.326C909.76 529.326 907.543 533.615 894.428 533.615C881.313 533.615 877.438 531.315 877.438 531.315L873.294 506.287L846.36 446.865L846.173 398.072Z" fill="#0E2512"/>
<path d="M654.999 837.252C653.673 836.672 652.575 840.028 652.927 841.893C653.88 847.301 659.143 854.469 668.301 859.877C677.459 865.285 697.846 868.952 703.813 870.63C709.78 872.308 719 878.607 724.532 881.446C734.684 886.625 742.972 886.024 747.572 883.725C748.376 883.215 749.067 882.546 749.602 881.758C750.136 880.971 750.503 880.081 750.679 879.146C751.881 875.002 751.798 874.111 751.342 873.987L654.999 837.252Z" fill="#263238"/>
<path d="M753.974 861.825C753.455 866.977 752.177 872.025 750.182 876.804C748.995 877.954 747.579 878.84 746.026 879.405C744.472 879.969 742.817 880.198 741.169 880.078C733.462 880.078 726.666 877.364 719.58 873.22C715.027 870.358 710.106 868.127 704.953 866.59C698.737 864.953 684.876 861.97 678.743 860.084C673.01 858.323 667.7 855.404 663.142 851.507C659.723 848.337 654.854 842.204 654.605 838.64C655.641 830.891 657.796 826.789 662.893 825.67C667.99 824.551 674.724 826.022 683.736 828.198C686.43 828.861 689.786 829.772 691.257 830.083C696.769 831.202 701.865 832.424 705.988 833.46C709.415 834.604 713.054 834.965 716.638 834.517C718.274 834.355 719.8 833.621 720.948 832.445C722.398 830.85 723.247 828.115 724.946 828.488C724.946 828.488 753.394 843.343 755.756 844.379C758.387 845.436 755.258 848.855 753.974 861.825Z" fill="#37474F"/>
<path d="M654.605 838.557C655.061 833.17 656.947 826.126 663.287 825.276C672.776 823.992 682.058 827.866 691.174 830L680.111 827.452C667.348 824.779 656.532 821.796 654.605 838.557Z" fill="white"/>
<path d="M688.937 828.964C687.783 829.371 686.73 830.021 685.85 830.87C684.898 831.792 684.056 832.821 683.343 833.937C682.452 835.346 684.234 836.257 685.56 834.724C686.582 833.427 687.758 832.258 689.061 831.243C689.986 830.551 691.118 830.193 692.273 830.228L693.847 830.56C693.826 829.296 690.346 828.674 688.937 828.964Z" fill="#FAFAFA"/>
<path d="M703.026 831.761C702.536 831.546 702.007 831.434 701.472 831.434C700.937 831.434 700.408 831.546 699.918 831.761C698.656 832.279 697.565 833.141 696.769 834.248C695.757 835.551 694.856 836.937 694.075 838.391C693.64 839.345 695.981 840.07 696.582 839.075C697.36 837.783 698.204 836.531 699.11 835.325C699.586 834.724 701.638 832.507 703.254 832.777L704 832.963C704.124 832.632 703.73 832.238 703.44 832.051L703.026 831.761Z" fill="#FAFAFA"/>
<path d="M711.085 834.103C710.363 834.017 709.633 834.178 709.014 834.558C708.216 835.133 707.516 835.833 706.942 836.63C705.988 838.006 705.241 839.514 704.725 841.106C704.29 842.37 706.797 842.784 707.066 841.955C707.716 839.704 708.953 837.666 710.65 836.05C711.407 835.353 712.326 834.855 713.323 834.6C713.323 834.351 713.012 834.206 712.764 834.165C712.515 834.123 711.458 834.103 711.085 834.103Z" fill="#FAFAFA"/>
<path d="M766.882 812.638C766.882 812.638 757.952 839.759 755.217 845.933C754.347 848.005 750.224 847.487 747.944 847.715C745.204 847.83 742.502 848.397 739.947 849.393C733.275 852.791 729.07 852.729 728.883 842.929C728.883 840.857 727.93 839.78 725.485 839.448C723.617 839.486 721.76 839.162 720.015 838.495C719.808 838.246 720.015 837.874 720.368 837.666C721.473 836.964 722.415 836.033 723.13 834.936C723.844 833.838 724.316 832.6 724.511 831.306C727.288 819.703 728.655 809.696 731.784 795.441L766.882 812.638Z" fill="#FFA8A7"/>
<path d="M788.471 544.368C788.471 544.368 774.817 560.716 766.571 591.318C759.096 619.733 753.408 648.589 749.54 677.716C747.572 690.748 746.121 700.03 742.578 723.753C739.636 743.499 726.666 816.989 726.666 816.989C726.666 816.989 736.176 825.276 744.174 828.26C751.632 831.078 758.532 832.197 761.267 831.078C761.267 831.078 770.445 807.5 781.799 776.628C787.279 762.486 791.65 747.939 794.873 733.118C796.365 725.473 796.013 711.881 795.867 705.023L856.906 610.752C861.834 604.914 865.692 598.25 868.301 591.069C876.319 570.93 866.084 541.882 866.084 541.882L788.471 544.368Z" fill="#263238"/>
<path d="M766.571 591.318C756.833 627.7 751.55 666.693 746.1 703.987C740.506 740.577 733.151 780.399 726.666 816.968C732.385 780.213 739.74 740.515 745.065 703.842C750.824 666.548 756.046 627.534 766.571 591.318Z" fill="white"/>
<path d="M848.535 570.847H773.574C770.779 577.504 768.439 584.344 766.571 591.318C759.61 617.484 754.268 644.055 750.576 670.879C752.399 683.144 754.45 695.741 756.377 704.402C761.412 727.193 764.54 743.436 768.539 752.864C772.538 762.291 782.089 775.654 782.131 775.654C787.456 761.772 791.716 747.503 794.873 732.973C796.365 725.328 796.013 711.736 795.867 704.878L840.206 636.506L843.645 615.269C854.979 596.787 853.715 582.947 848.535 570.847Z" fill="black"/>
<path d="M874.745 855.36C870.891 849.145 868.798 837.356 860.345 813.259L827.381 840.194L846.919 871.273C847.538 872.863 848.01 874.506 848.328 876.183C852.534 882.295 874.745 855.36 874.745 855.36Z" fill="#FFA8A7"/>
<path d="M886.368 868.496C886.368 868.144 886.513 865.243 886.368 864.891C885.539 861.763 883.612 860.892 881.126 859.152C878.635 857.467 876.342 855.507 874.289 853.309C873.46 852.149 873.294 851.548 872.01 851.03C870.336 850.507 868.568 850.354 866.829 850.583C865.09 850.812 863.422 851.417 861.94 852.356C854.813 856.085 852.637 860.644 853.052 865.492C853.363 869.201 853.673 874.152 850.379 876.369C849.012 877.302 846.857 871.355 846.857 871.355C844.785 874.733 847.686 879.436 849.157 886.315C850.012 890.114 850.083 894.048 849.364 897.876C848.639 903.905 847.81 903.884 844.599 904.299C841.843 904.672 834.011 904.154 829.246 907.469C827.431 908.528 825.992 910.128 825.131 912.044C824.269 913.961 824.027 916.099 824.439 918.16C825.288 920.48 832.436 931.73 858.501 927.525C866.063 926.302 881.955 914.409 881.727 913.311C881.592 912.176 881.592 911.028 881.727 909.893C881.727 907.22 881.913 904.547 882.038 901.895C881.939 899.345 882.092 896.791 882.494 894.271C882.975 892.227 883.293 890.149 883.447 888.055C883.944 882.689 884.462 877.343 884.959 871.998C885.228 870.361 886.575 870.112 886.368 868.496Z" fill="#37474F"/>
<path d="M889.662 867.439C892.231 869.926 890.657 877.157 887.217 885.817C885.684 889.65 882.846 896.28 883.675 903.304C884.503 910.328 884.648 913.663 882.846 916.958C880.007 922.117 864.841 928.726 855.911 930.798C861.312 923.222 864.458 914.272 864.986 904.982C865.898 889.464 867.058 879.456 874.185 872.557C883.157 863.897 889.662 867.439 889.662 867.439Z" fill="black"/>
<path d="M824.501 918.16C824.501 918.16 829.722 927.96 849.903 927.628C857.859 927.504 862.106 923.629 862.334 911.571C862.583 897.068 863.743 882.316 868.446 875.106C873.149 867.895 880.65 864.373 886.472 864.891C887.832 865.303 888.986 866.213 889.704 867.439C889.704 867.439 883.882 865.533 874.828 873.034C868.135 878.586 866.333 890.168 866.436 904.547C866.436 910.763 866.851 917.766 865.048 922.469C864.212 924.536 862.906 926.379 861.234 927.854C859.562 929.328 857.569 930.393 855.414 930.964C844.433 934.03 829.432 928.892 825.641 924.334C824.993 923.459 824.554 922.448 824.357 921.379C824.159 920.309 824.209 919.208 824.501 918.16Z" fill="#263238"/>
<path d="M848.742 901.667C847.924 902.244 847.343 903.098 847.106 904.071C847.015 905.312 847.262 906.555 847.82 907.667C848.378 908.78 849.226 909.72 850.276 910.39C851.498 911.157 852.555 910.887 850.628 908.318C849.393 906.319 848.741 904.016 848.742 901.667Z" fill="#FAFAFA"/>
<path d="M849.758 894.126C849.758 894.126 849.115 894.54 848.97 896.57C849.304 899.136 850.637 901.467 852.679 903.055C854.751 904.091 853.653 901.647 852.679 900.445C851.244 898.584 850.246 896.424 849.758 894.126Z" fill="#FAFAFA"/>
<path d="M849.115 885.817C849.115 885.817 848.411 886.004 849.115 888.78C850.096 890.534 851.645 891.901 853.508 892.655C854.875 892.82 855.58 892.137 853.86 890.914C852.575 889.961 849.364 887.164 849.115 885.817Z" fill="#FAFAFA"/>
<path d="M835.814 544.368C839.377 548.015 848.245 560.26 849.695 579.093C850.244 591.471 846.357 603.637 838.735 613.404C835.876 655.174 833.162 734.03 833.162 734.03C842.858 747.725 845.324 756.51 851.705 776.877C855.58 789.308 869.006 838.329 869.006 838.329C849.364 841.292 837.43 858.551 837.43 858.551C837.43 858.551 810.205 814.689 792.097 784.17C778.837 761.835 774.278 752.221 769.844 739.562C765.701 727.918 762.8 713.829 758.822 686.646C754.844 659.462 750.949 623.681 749.001 596.912C747.054 570.143 748.172 542.193 748.172 542.193L835.814 544.368Z" fill="#263238"/>
<path d="M837.43 858.551C828.044 843.696 809.501 813.757 800.405 798.735C788.492 778.576 775.211 758.81 768.291 736.205C762.763 713.388 758.612 690.258 755.859 666.942C752.938 643.674 750.617 620.324 749.063 596.912C750.016 608.597 751.142 620.269 752.44 631.927C756.149 666.859 760.728 701.874 769.347 735.936C776.102 758.416 789.279 778.265 801.047 798.383L837.492 858.468L837.43 858.551Z" fill="white"/>
<path d="M871.222 577.104C868.029 576.072 865.23 574.083 863.204 571.407C862.243 569.544 861.545 567.557 861.132 565.502C860.301 562.067 859.171 558.712 857.755 555.474L855.683 556.385C857.031 559.521 858.112 562.765 858.915 566.082C859.378 568.359 860.166 570.557 861.257 572.608C863.677 575.873 867.108 578.247 871.015 579.363C871.098 578.617 871.181 577.975 871.222 577.104Z" fill="black"/>
<path d="M817.581 601.035C818.068 601.037 818.554 600.989 819.031 600.89C822.305 600.165 824.853 597.968 829.929 591.483C833.783 586.532 833.39 582.989 832.747 577.104C832.499 574.929 830.22 563.388 830.095 560.343L827.92 561.544C828.065 564.673 830.261 575.157 830.489 577.353C831.152 583.196 831.442 585.869 828.148 590.074C823.444 596.083 821.207 598.093 818.534 598.694C815.861 599.294 804.487 597.368 801.42 595.254C799.659 594.032 796.717 578.948 794.977 565.647L792.739 565.958C793.609 572.671 796.717 594.757 800.136 597.036C803.181 599.212 813.023 601.159 817.581 601.035Z" fill="black"/>
<path d="M795.681 385.889L799.804 416.097L840.848 414.005L836.415 381.289L795.681 385.889Z" fill="#FFA8A7"/>
<path d="M779.313 329.347C776.164 333.346 766.509 344.244 764.81 347.103L774.009 352.676L779.313 329.347Z" fill="#F28F8F"/>
<path d="M779.313 329.347C774.878 335.581 770.033 341.513 764.81 347.103C768.925 340.632 773.794 334.671 779.313 329.347Z" fill="white"/>
<path d="M802.104 298.993C789.424 297.626 781.198 306.618 777.511 333.615C777.365 334.672 775.812 336.329 774.631 340.369C769.534 357.69 772.372 374.183 775.314 378.575C782.67 384.48 790.833 386.697 802.663 385.682C811.676 384.915 834.674 382.18 846.36 369.997C860.076 355.681 867.079 334.071 857.258 322.882C843.542 307.115 809.148 299.739 802.104 298.993Z" fill="#FFA8A7"/>
<path d="M802.104 298.993C783.042 297.398 780.411 320.686 777.676 334.672C772.476 344.513 771.688 356.344 772.496 367.304C772.688 371.209 773.646 375.039 775.314 378.575C773.491 375.088 772.358 371.282 771.979 367.366C770.818 356.261 771.543 344.264 776.765 334.216C779.272 320.168 782.98 296.486 802.104 298.993Z" fill="white"/>
<path d="M775.356 378.575C776.972 380.999 788.595 386.966 795.888 387.422L795.205 381.745C788.477 381.571 781.803 380.505 775.356 378.575Z" fill="#F28F8F"/>
<path d="M799.638 346.295C799.762 346.728 800.007 347.118 800.343 347.418C800.68 347.718 801.094 347.916 801.539 347.99C801.984 348.064 802.441 348.01 802.856 347.835C803.271 347.659 803.628 347.37 803.886 346.999C805.221 345.044 806.771 343.244 808.506 341.633C810.711 339.818 813.505 338.874 816.359 338.981C827.008 339.789 824.397 353.816 819.176 358.706C810.619 366.682 806.082 359.783 806.082 359.783C806.082 359.783 799.866 373.354 808.879 381.289C808.879 381.289 824.335 387.961 836.477 384.19C845.552 374.411 851.622 368.236 857.734 359.824C872.238 339.893 872.238 320.168 862.935 314.533C863.453 307.468 859.64 296.818 845.096 290.685C831.255 284.822 821.994 285.402 811.945 285.961C801.897 286.521 789.631 291.1 780.328 283.33C779.19 286.136 778.737 289.173 779.007 292.189C779.277 295.205 780.263 298.113 781.882 300.672C780.379 299.949 778.651 299.853 777.077 300.405C775.504 300.957 774.214 302.111 773.491 303.614C772.768 305.117 772.672 306.845 773.224 308.419C773.776 309.992 774.93 311.282 776.433 312.005C775.439 312.573 774.672 313.467 774.26 314.535C773.849 315.603 773.819 316.781 774.175 317.868C774.586 318.936 775.295 319.864 776.216 320.543C777.137 321.222 778.233 321.624 779.375 321.701C781.455 321.823 783.543 321.691 785.591 321.308C788.512 329.471 797.732 332.33 803.223 331.999C803.078 331.999 802.353 333.118 802.249 333.263C801.938 333.718 801.648 334.195 801.379 334.672C800.854 335.646 800.417 336.665 800.073 337.717C799.396 339.837 799.136 342.067 799.307 344.285C799.3 344.969 799.412 345.649 799.638 346.295Z" fill="#0E2512"/>
<path d="M780.37 283.33C779.286 286.137 778.877 289.16 779.176 292.154C779.474 295.148 780.472 298.03 782.089 300.568L782.442 301.107L781.841 300.837C780.393 300.198 778.753 300.147 777.268 300.695C775.783 301.244 774.57 302.349 773.885 303.777C773.201 305.204 773.1 306.842 773.602 308.343C774.105 309.844 775.172 311.091 776.578 311.819L776.951 312.005L776.578 312.191C771.378 315.507 775.19 322.116 780.722 321.681C782.387 321.691 784.05 321.566 785.694 321.308C783.242 321.876 780.706 321.982 778.215 321.619C773.615 320.603 771.999 314.243 776.371 311.819V312.191C774.819 311.45 773.625 310.122 773.051 308.499C772.478 306.877 772.573 305.094 773.315 303.541C774.057 301.989 775.385 300.795 777.007 300.222C778.629 299.649 780.413 299.743 781.965 300.485L781.737 300.775C780.111 298.197 779.135 295.262 778.894 292.224C778.652 289.185 779.151 286.133 780.349 283.33H780.37Z" fill="white"/>
<path d="M857.569 402.651C868.218 408.618 876.319 428.508 875.532 445.104C875.035 455.629 871.388 482.75 868.197 506.743C867.203 514.305 870.269 527.068 871.595 542.4C872.631 553.775 872.776 565.875 872.776 565.875C872.776 565.875 858.501 583.527 819.342 585.827C769.327 588.79 747.178 576.69 747.178 576.69C747.178 576.69 746.888 535.956 748.09 503.676C749.871 455.836 749.975 441.851 757.455 425.545C759.92 420.738 762.51 410.027 770.653 407.892C777.117 406.214 791.993 402.651 797.898 401.677C807.553 404.163 832.623 404.37 838.839 399.087L838.735 397.699C849.488 397.719 851.001 398.983 857.569 402.651Z" fill="#48B75A"/>
<path d="M589.651 525.058C591.288 525.431 593.484 524.582 595.867 522.489C600.701 517.877 603.945 511.848 605.129 505.272C605.564 502.143 605.129 499.843 603.865 498.683L594.065 489.297C592.703 488.199 591.045 487.533 589.302 487.386C587.559 487.238 585.812 487.615 584.285 488.469C575.998 492.737 569.409 505.044 570.362 514.326C570.797 518.49 588.698 524.83 589.651 525.058Z" fill="#0E2512"/>
<path d="M604.611 504.319C604.903 502.998 604.757 501.618 604.194 500.388C603.632 499.159 602.683 498.146 601.493 497.504C600.302 496.862 598.935 496.625 597.598 496.831C596.261 497.036 595.028 497.672 594.085 498.642C591.127 500.697 588.694 503.421 586.984 506.593C585.274 509.764 584.335 513.293 584.244 516.895C583.944 518.22 584.086 519.606 584.649 520.842C585.212 522.079 586.164 523.096 587.36 523.74C588.556 524.384 589.93 524.618 591.272 524.407C592.613 524.196 593.849 523.552 594.79 522.572C597.753 520.522 600.188 517.799 601.895 514.626C603.603 511.453 604.533 507.921 604.611 504.319Z" fill="#263238"/>
<path d="M655.994 553.547C656.706 553.827 657.479 553.919 658.238 553.814C658.996 553.709 659.715 553.41 660.324 552.946C662.037 551.751 663.445 550.171 664.435 548.332C665.425 546.493 665.968 544.446 666.022 542.359C666.074 541.596 665.927 540.832 665.597 540.142C665.266 539.452 664.763 538.86 664.136 538.422L601.731 502.827C600.805 502.345 599.774 502.104 598.731 502.126C597.688 502.148 596.668 502.431 595.764 502.951C593.46 504.207 591.572 506.106 590.329 508.416C589.086 510.727 588.541 513.348 588.761 515.963C588.828 517.002 589.155 518.008 589.713 518.887C590.271 519.767 591.04 520.493 591.951 520.997L655.994 553.547Z" fill="#0E2512"/>
<path d="M666.022 542.359C666.074 541.596 665.927 540.832 665.597 540.142C665.267 539.452 664.763 538.86 664.136 538.422C663.446 538.093 662.678 537.961 661.917 538.042C661.156 538.122 660.433 538.412 659.827 538.878C658.053 540.069 656.595 541.674 655.581 543.555C654.566 545.436 654.025 547.536 654.005 549.672C653.952 550.447 654.118 551.222 654.485 551.907C654.851 552.592 655.403 553.16 656.077 553.547C656.789 553.827 657.562 553.919 658.32 553.814C659.079 553.709 659.798 553.41 660.407 552.946C662.105 551.742 663.497 550.158 664.472 548.319C665.447 546.481 665.978 544.439 666.022 542.359Z" fill="#263238"/>
<path d="M734.249 533.118C739.885 531.233 744.049 524.706 752.13 507.882C762.241 486.956 767.69 482.232 775.107 460.809C781.323 445.124 773.035 416.201 769.264 410.172C756.646 414.668 747.841 418.832 739.325 436.526C731.68 452.438 716.369 484.553 709.386 498.683C709.386 498.683 668.757 507.447 657.838 508.172C653.602 508.547 649.345 507.751 645.531 505.873C643.25 504.702 640.718 504.105 638.155 504.132C637.149 504.096 636.145 504.244 635.192 504.567C633.409 505.43 631.828 506.659 630.551 508.172C627.829 510.418 624.971 512.494 621.994 514.388C618.699 516.854 614.825 518.532 611.489 521.039C608.63 523.111 605.481 524.913 603.678 528.104C603.343 528.619 603.117 529.197 603.015 529.803C602.96 530.33 603.021 530.862 603.193 531.363C603.364 531.864 603.643 532.321 604.01 532.704C604.752 533.472 605.68 534.035 606.703 534.34C608.153 534.59 609.552 535.073 610.847 535.77C612.194 536.765 612.297 538.733 613.52 539.914C615.426 541.716 618.554 541.447 620.73 542.939C622.408 544.099 623.341 546.212 625.143 547.083C626.125 547.517 627.178 547.77 628.251 547.828C630.157 548.015 632.042 548.595 633.949 548.595C636.228 548.595 637.222 547.518 639.108 546.523C645.613 542.897 649.136 538.546 660.635 537.78C668.321 537.283 728.614 535.003 734.249 533.118Z" fill="#FFA8A7"/>
<path d="M770.487 407.892C756.75 411.166 748.628 416.18 739.595 432.755C731.307 448.108 708.516 497.171 708.516 497.171L685.725 503.573C683.908 506.23 682.658 509.233 682.052 512.395C681.446 515.557 681.498 518.809 682.203 521.95C684.379 532.6 689.103 537.386 689.103 537.386C689.103 537.386 700.726 537.055 720.533 536.371C740.341 535.687 741.77 531.108 746.121 522.489C750.472 513.87 777.2 461.865 777.2 461.865C777.2 461.865 788.015 423.411 770.487 407.892Z" fill="#0E2512"/>
<path d="M797.96 401.863C788.719 403.562 779.603 406.007 770.528 408.286C763.689 409.637 757.286 412.646 751.881 417.05C743.096 424.944 738.434 436.112 733.234 446.471C724.946 463.336 717.177 480.409 709.2 497.398V497.606H708.972L686.181 503.946C675.117 505.624 663.39 509.333 652.161 508.297C648.286 507.944 645.033 505.437 641.345 504.712C639.514 504.329 637.624 504.329 635.793 504.712C634.062 505.403 632.531 506.514 631.338 507.944C625.599 513.083 618.741 516.584 612.339 520.666C609.334 522.924 605.771 524.81 603.844 528.125C605.729 524.727 609.272 522.821 612.132 520.521C618.451 516.377 625.288 512.668 630.779 507.571C632.026 506.06 633.638 504.891 635.461 504.174C637.374 503.77 639.35 503.77 641.262 504.174C645.054 504.878 648.183 507.344 652.057 507.696C663.287 508.628 674.848 504.919 685.787 503.158L708.454 496.715L708.143 496.984C715.947 479.898 724.007 462.936 732.322 446.098C737.647 435.739 742.412 424.488 751.322 416.574C756.858 411.971 763.539 408.957 770.652 407.851C778.588 405.634 789.009 403.396 797.877 401.843L797.96 401.863Z" fill="white"/>
<path opacity="0.3" d="M761.723 704.36C752.276 739.689 745.352 775.644 741.004 811.954C739.595 823.702 737.813 836.713 728.717 844.255C721.735 850.036 712.142 851.113 703.067 851.776C686.119 852.978 667.741 853.081 653.528 844.213C655.351 849.248 660.303 855.236 668.28 859.918C677.521 865.326 697.825 868.993 703.813 870.672C709.801 872.35 718.979 878.628 724.532 881.487C734.684 886.667 742.972 886.066 747.592 883.766C748.393 883.251 749.081 882.576 749.611 881.785C750.142 880.994 750.506 880.103 750.679 879.166C751.902 875.023 751.798 874.132 751.342 874.028C752.653 870.055 753.555 865.959 754.036 861.804C755.258 849.372 758.18 845.747 755.983 844.421C757.164 841.437 758.946 836.423 760.728 831.264C760.925 831.221 761.119 831.166 761.308 831.098C761.308 831.098 770.487 807.52 781.861 776.67C782.628 774.598 783.353 772.526 784.058 770.578C776.35 757.38 772.414 749.59 769.886 739.603C767.358 729.617 764.623 720.086 761.723 704.36ZM909.552 511.674C908.744 501.482 906.691 491.428 903.44 481.735C900.871 473.717 889.206 434.703 880.463 418.666C871.72 402.63 862.562 399.253 846.173 397.947C843.703 397.682 841.219 397.578 838.735 397.637C838.735 397.637 838.735 398.424 838.735 398.818L836.663 383.755C845.572 374.162 851.602 368.008 857.631 359.7C872.134 339.748 872.134 320.044 862.831 314.408C863.37 307.322 859.537 296.694 845.013 290.561C840.369 288.546 835.5 287.099 830.51 286.251C825.626 286.823 820.81 287.871 816.131 289.38C809.687 291.452 803.285 294.622 799.182 300.009C795.619 304.733 794.148 310.658 792.76 316.397C788.305 334.817 783.85 353.588 785.322 372.463C785.391 375.685 786.184 378.85 787.642 381.724C788.564 383.172 789.771 384.418 791.188 385.387C792.605 386.355 794.204 387.027 795.888 387.36C795.888 387.36 804.818 387.94 809.293 388.023C809.915 391.835 810.806 397.554 811.365 401.366C811.707 402.63 811.649 403.969 811.2 405.199C810.724 405.896 810.111 406.489 809.398 406.941C808.686 407.393 807.889 407.696 807.056 407.83C790.854 412.285 771.958 412.679 760.562 425.027C756.55 429.876 753.333 435.331 751.032 441.188L733.255 480.326C729.401 488.842 725.278 497.689 717.923 503.448C704.642 513.808 685.684 511.032 669.316 515.072C657.444 518.014 646.877 524.623 635.13 527.897C632.436 528.663 629.743 529.389 627.008 529.969C624.273 530.549 621.248 530.279 618.389 530.715C617.299 530.825 616.271 531.274 615.45 531.999C614.629 532.724 614.055 533.687 613.81 534.755C613.735 535.895 613.927 537.037 614.369 538.091C614.928 539.484 615.868 540.69 617.083 541.571C618.354 541.817 619.574 542.28 620.688 542.939C622.387 544.099 623.299 546.212 625.102 547.083C626.082 547.52 627.137 547.767 628.209 547.808C630.092 548.175 631.995 548.431 633.907 548.574C636.186 548.574 637.181 547.497 639.066 546.502L640.537 545.632C646.173 542.214 650.006 538.443 660.614 537.738L662.81 537.614C667.617 537.365 677.541 536.93 688.543 536.412C688.999 536.972 689.268 537.241 689.268 537.241C689.268 537.241 700.892 536.93 720.699 536.247C740.506 535.563 741.936 530.963 746.287 522.365L747.613 519.754V519.961C753.974 507.53 765.286 485.299 769.016 478.026C769.016 478.026 767.648 538.111 767.793 564.196C768.063 612.824 775.687 661.058 783.27 709.084C785.156 720.894 790.17 732.124 794.376 743.374C799.017 755.806 803.803 768.237 808.879 780.461C818.741 804.699 830.678 828.039 844.557 850.222C847.889 854.878 850.67 859.905 852.845 865.202C855.455 872.681 855.31 880.803 855.062 888.697C855.222 895.205 854.276 901.692 852.265 907.883C848.121 918.947 833.721 920.003 824.77 913.477C824.282 915.005 824.204 916.634 824.543 918.201C824.244 919.253 824.187 920.358 824.378 921.435C824.568 922.512 825 923.531 825.641 924.417C829.432 929.058 844.433 934.134 855.414 931.047L855.952 930.881C864.882 928.809 880.049 922.22 882.887 917.061C884.71 913.767 884.565 910.431 883.716 903.408C882.866 896.384 885.788 889.754 887.259 885.9C890.719 877.24 892.273 870.029 889.704 867.522C888.985 866.297 887.831 865.387 886.472 864.974C885.643 861.866 883.716 860.996 881.25 859.255C878.743 857.576 876.442 855.608 874.392 853.392C873.993 852.663 873.458 852.016 872.818 851.486C871.492 848.295 870.207 844.068 868.529 838.536H869.068C869.068 838.536 855.58 789.308 851.705 776.877C845.324 756.51 842.858 747.725 833.162 734.03C833.162 734.03 834.923 682.958 837.098 641.25L856.906 610.648C860.754 606.163 863.91 601.128 866.271 595.71C866.207 595.823 866.152 595.941 866.105 596.062C866.494 596.178 866.901 596.227 867.307 596.207C871.699 596.207 874.828 592.063 878.08 589.805C878.356 589.555 878.691 589.378 879.053 589.291C879.415 589.204 879.793 589.21 880.152 589.308L880.38 589.163C883.882 587.485 884.089 595.378 884.027 597.057C883.739 601.045 882.772 604.955 881.168 608.618C878.723 614.709 875.636 620.842 875.926 627.389C875.925 627.845 875.988 628.298 876.112 628.736C877.562 628.011 878.184 625.649 878.868 624.406C879.91 622.965 881.281 621.793 882.866 620.987C884.507 619.618 886.058 618.144 887.508 616.574C889.041 615.248 891.403 615.455 893.185 614.108C894.966 612.762 894.697 611.042 895.816 609.675C896.935 608.307 898.654 607.913 899.794 606.505C901.576 604.335 902.756 601.734 903.212 598.963C904 593.099 905.512 587.422 905.492 581.518C905.471 575.613 905.492 570.474 905.802 564.942C906.362 556.178 908.144 542.027 908.848 530.259C909.188 529.997 909.476 529.673 909.698 529.306C910.072 523.433 910.024 517.54 909.552 511.674ZM887.549 557.401C886.347 561.855 882.908 565.253 880.277 569.024C875.014 576.566 872.838 585.951 867.348 593.348C867.679 592.561 868.032 591.753 868.363 590.903C870.981 583.437 871.943 575.49 871.181 567.615C871.753 567.103 872.286 566.549 872.776 565.958C872.776 565.958 872.631 553.858 871.595 542.504C870.207 527.151 867.203 514.409 868.197 506.846C869.378 497.854 870.642 488.406 871.761 479.559C874.946 485.842 877.714 492.327 880.049 498.973C885.643 515.237 887.031 532.559 887.922 549.61C888.206 552.217 888.08 554.853 887.549 557.421V557.401Z" fill="black"/>
<path d="M197.4 364.03L175.645 376.586V428.922L145.602 446.264L180.824 313.662L157.453 327.275L119.662 468.578V488.883L175.603 456.561V486.811L197.358 474.255V443.923L212.069 435.428V407.872L197.358 416.367L197.4 364.03ZM276.567 258.364C245.343 276.389 220.045 324.664 220.045 366.351C220.045 408.037 245.343 427.099 276.567 409.094C307.79 391.089 333.088 342.793 333.088 301.086C333.088 259.379 307.77 240.442 276.567 258.467V258.364ZM276.567 380.067C257.36 391.152 241.8 379.383 241.8 353.795C241.8 328.207 257.36 298.455 276.567 287.37C295.773 276.285 311.313 288.054 311.313 313.662C311.313 339.271 295.753 369.086 276.567 380.17V380.067ZM418.202 288.779V236.546L396.426 249.102V301.438L366.404 318.78L401.627 186.179L378.235 199.687L340.443 341.032V361.254L396.385 328.932V359.224L418.16 346.668V316.439L432.871 307.944V280.388L418.202 288.779Z" fill="#48B75A"/>
<path d="M194.395 279.228C194.449 279.187 194.515 279.165 194.582 279.165C194.649 279.165 194.715 279.187 194.768 279.228C194.893 279.228 194.934 279.435 194.934 279.642V281.569C194.936 281.781 194.878 281.989 194.768 282.17C194.689 282.348 194.56 282.499 194.395 282.605L185.465 287.764C185.412 287.804 185.346 287.826 185.279 287.826C185.212 287.826 185.146 287.804 185.093 287.764C185.036 287.711 184.991 287.647 184.963 287.575C184.934 287.504 184.922 287.426 184.927 287.349V269.842C184.936 269.632 184.992 269.426 185.093 269.241C185.171 269.063 185.301 268.911 185.465 268.806L194.23 263.75C194.285 263.705 194.355 263.68 194.426 263.68C194.498 263.68 194.568 263.705 194.623 263.75C194.679 263.807 194.721 263.876 194.747 263.951C194.772 264.027 194.779 264.107 194.768 264.186V266.092C194.77 266.307 194.72 266.52 194.623 266.713C194.532 266.89 194.396 267.039 194.23 267.148L187.662 270.94V275.249L193.877 271.707C193.934 271.664 194.003 271.642 194.074 271.642C194.145 271.642 194.214 271.664 194.271 271.707C194.328 271.759 194.372 271.823 194.401 271.895C194.43 271.967 194.442 272.044 194.437 272.121V274.048C194.431 274.265 194.374 274.478 194.271 274.669C194.191 274.854 194.053 275.007 193.877 275.104L187.662 278.627V283.123L194.395 279.228Z" fill="#37474F"/>
<path d="M203.325 258.529C205.024 257.556 206.309 257.348 207.2 257.887C208.091 258.426 208.505 259.607 208.505 261.471C208.511 262.76 208.279 264.038 207.821 265.242C207.343 266.442 206.64 267.539 205.749 268.474L208.546 273.551C208.565 273.632 208.565 273.717 208.546 273.799C208.545 273.972 208.502 274.143 208.422 274.296C208.346 274.435 208.24 274.556 208.111 274.649L206.371 275.664C206.102 275.809 205.915 275.85 205.77 275.664C205.663 275.577 205.572 275.471 205.501 275.353L202.849 270.567L200.135 272.121V278.44C200.138 278.652 200.081 278.861 199.969 279.041C199.884 279.222 199.756 279.378 199.596 279.497L197.938 280.429C197.886 280.473 197.82 280.497 197.752 280.497C197.684 280.497 197.618 280.473 197.565 280.429C197.503 280.377 197.455 280.31 197.426 280.233C197.397 280.157 197.388 280.075 197.4 279.994V262.507C197.396 262.295 197.453 262.087 197.565 261.906C197.644 261.722 197.773 261.564 197.938 261.451L203.325 258.529ZM200.28 268.889L203.222 267.19C203.949 266.787 204.585 266.237 205.086 265.574C205.572 264.854 205.812 263.996 205.77 263.129C205.77 262.114 205.542 261.575 205.086 261.492C204.42 261.463 203.762 261.66 203.222 262.052L200.28 263.75V268.889Z" fill="#37474F"/>
<path d="M216.855 250.615C218.554 249.641 219.838 249.413 220.708 249.952C221.579 250.49 222.035 251.692 222.035 253.557C222.049 256.143 221.096 258.641 219.362 260.56L222.159 265.615C222.178 265.704 222.178 265.796 222.159 265.885C222.157 266.058 222.115 266.228 222.035 266.382C221.958 266.527 221.843 266.649 221.703 266.734L219.983 267.728C219.714 267.894 219.507 267.915 219.382 267.832C219.27 267.742 219.178 267.629 219.113 267.501L216.44 262.735L213.747 264.289V270.608C213.738 270.819 213.681 271.024 213.581 271.209C213.502 271.388 213.373 271.539 213.208 271.644L211.551 272.597C211.495 272.632 211.43 272.651 211.364 272.651C211.298 272.651 211.234 272.632 211.178 272.597C211.115 272.545 211.067 272.478 211.038 272.402C211.009 272.325 211 272.243 211.012 272.162V254.758C211.008 254.54 211.065 254.324 211.178 254.137C211.257 253.958 211.386 253.807 211.551 253.702L216.855 250.615ZM213.809 260.974L216.751 259.275C217.473 258.872 218.101 258.321 218.595 257.659C219.097 256.938 219.345 256.071 219.3 255.194C219.3 254.199 219.072 253.64 218.595 253.577C217.938 253.552 217.291 253.741 216.751 254.116L213.809 255.815V260.974Z" fill="#37474F"/>
<path d="M224.189 253.515C224.232 252.468 224.378 251.427 224.624 250.407C224.869 249.376 225.245 248.38 225.743 247.445C226.23 246.49 226.843 245.605 227.566 244.813C228.317 243.993 229.191 243.294 230.156 242.741C230.941 242.248 231.826 241.937 232.746 241.83C233.398 241.762 234.051 241.947 234.569 242.348C235.107 242.778 235.497 243.365 235.688 244.026C235.962 244.871 236.115 245.749 236.144 246.637C236.144 246.968 236.144 247.341 236.144 247.755C236.144 248.17 236.144 248.605 236.144 249.04C236.144 249.475 236.144 249.91 236.144 250.325C236.144 250.739 236.144 251.133 236.144 251.485C236.101 252.532 235.955 253.573 235.709 254.593C235.454 255.621 235.079 256.615 234.59 257.555C234.103 258.515 233.482 259.401 232.746 260.187C232.003 261.015 231.128 261.715 230.156 262.259C229.376 262.764 228.49 263.083 227.566 263.191C226.918 263.257 226.268 263.08 225.743 262.694C225.206 262.263 224.815 261.677 224.624 261.016C224.36 260.169 224.214 259.291 224.189 258.405C224.189 258.073 224.189 257.701 224.189 257.286C224.189 256.872 224.189 256.437 224.189 256.002C224.189 255.566 224.189 255.131 224.189 254.717C224.189 254.303 224.189 253.867 224.189 253.515ZM233.389 248.336C233.434 247.88 233.373 247.421 233.212 246.993C233.05 246.566 232.791 246.181 232.456 245.87C231.876 245.483 231.109 245.566 230.156 246.119C229.19 246.686 228.401 247.511 227.877 248.501C227.283 249.596 226.963 250.819 226.945 252.065C226.945 252.769 226.945 253.536 226.945 254.385C226.945 255.235 226.945 255.981 226.945 256.644C226.895 257.099 226.953 257.56 227.115 257.989C227.277 258.417 227.538 258.801 227.877 259.109C228.247 259.325 228.675 259.421 229.102 259.384C229.528 259.347 229.933 259.179 230.26 258.902C231.233 258.336 232.029 257.512 232.56 256.52C233.144 255.428 233.463 254.214 233.492 252.977C233.492 252.272 233.492 251.506 233.492 250.656C233.492 249.807 233.43 248.999 233.389 248.336Z" fill="#37474F"/>
<path d="M244.597 234.661C246.296 233.687 247.581 233.459 248.472 233.998C249.363 234.537 249.798 235.738 249.798 237.603C249.802 238.891 249.57 240.169 249.114 241.374C248.64 242.569 247.936 243.66 247.042 244.585L249.839 249.662C249.861 249.75 249.861 249.842 249.839 249.931C249.838 250.104 249.795 250.275 249.715 250.428C249.652 250.576 249.543 250.7 249.404 250.78L247.664 251.775C247.395 251.941 247.208 251.961 247.063 251.775C246.947 251.698 246.853 251.59 246.794 251.464L244.142 246.699L241.427 248.253V254.468C241.426 254.677 241.377 254.883 241.282 255.069C241.191 255.246 241.055 255.395 240.889 255.504L239.231 256.457C239.177 256.498 239.112 256.52 239.045 256.52C238.978 256.52 238.912 256.498 238.858 256.457C238.799 256.407 238.753 256.343 238.724 256.271C238.695 256.199 238.684 256.12 238.693 256.043V238.535C238.702 238.325 238.758 238.12 238.858 237.935C238.937 237.756 239.067 237.605 239.231 237.5L244.597 234.661ZM241.552 245.021L244.494 243.301C245.22 242.906 245.856 242.362 246.359 241.705C246.841 240.976 247.08 240.113 247.042 239.24C247.042 238.225 246.814 237.686 246.359 237.603C245.694 237.595 245.044 237.79 244.494 238.163L241.552 239.862V245.021Z" fill="#37474F"/>
<path d="M269.232 239.406C268.984 239.551 268.818 239.571 268.694 239.406C268.596 239.339 268.506 239.263 268.424 239.178L262.747 231.201V242.369C262.738 242.579 262.682 242.784 262.582 242.969C262.496 243.15 262.359 243.301 262.188 243.404L260.551 244.358C260.494 244.4 260.425 244.422 260.354 244.422C260.283 244.422 260.214 244.4 260.157 244.358C260.101 244.305 260.056 244.241 260.028 244.169C259.999 244.097 259.987 244.02 259.992 243.943V226.436C260.001 226.225 260.057 226.02 260.157 225.835C260.243 225.654 260.38 225.503 260.551 225.4L261.981 224.571C262.209 224.447 262.374 224.426 262.499 224.571L262.768 224.799L268.445 232.776V221.608C268.454 221.391 268.51 221.179 268.611 220.987C268.696 220.806 268.833 220.655 269.004 220.551L270.641 219.598C270.698 219.556 270.767 219.534 270.838 219.534C270.909 219.534 270.978 219.556 271.035 219.598C271.092 219.651 271.136 219.715 271.165 219.787C271.193 219.858 271.206 219.936 271.201 220.013V237.52C271.195 237.731 271.138 237.937 271.035 238.121C270.943 238.303 270.808 238.46 270.641 238.577L269.232 239.406Z" fill="#37474F"/>
<path d="M252.678 247.32C252.711 247.047 252.788 246.781 252.906 246.533C253.023 246.272 253.218 246.055 253.465 245.911L255.04 245C255.082 244.969 255.133 244.953 255.185 244.953C255.237 244.953 255.288 244.969 255.33 245C255.373 245.038 255.407 245.087 255.429 245.14C255.45 245.194 255.459 245.253 255.454 245.311C255.454 245.311 255.454 245.435 255.454 245.476L254.253 250.221C254.253 250.407 254.108 250.615 254.004 250.863C253.888 251.107 253.7 251.309 253.465 251.443L252.636 251.92C252.599 251.952 252.551 251.97 252.502 251.97C252.452 251.97 252.405 251.952 252.367 251.92C252.367 251.92 252.243 251.775 252.243 251.63L252.678 247.32Z" fill="#37474F"/>
<path d="M273.873 224.84C273.917 223.793 274.062 222.752 274.309 221.732C274.554 220.695 274.93 219.692 275.427 218.749C275.912 217.799 276.526 216.921 277.251 216.138C277.997 215.313 278.872 214.613 279.84 214.066C280.62 213.563 281.507 213.251 282.43 213.155C283.079 213.083 283.731 213.261 284.254 213.652C284.786 214.095 285.176 214.686 285.372 215.351C285.649 216.195 285.803 217.074 285.828 217.962C285.828 218.293 285.828 218.666 285.828 219.08V221.608C285.828 222.022 285.828 222.416 285.828 222.768C285.785 223.816 285.639 224.857 285.393 225.876C285.138 226.904 284.763 227.899 284.274 228.839C283.78 229.794 283.16 230.679 282.43 231.47C281.681 232.293 280.807 232.992 279.84 233.542C279.06 234.047 278.174 234.366 277.251 234.475C276.602 234.542 275.952 234.365 275.427 233.977C274.886 233.542 274.494 232.948 274.309 232.278C274.044 231.439 273.898 230.568 273.873 229.688C273.873 229.336 273.873 228.984 273.873 228.57C273.873 228.155 273.873 227.72 273.873 227.285C273.873 226.85 273.873 226.415 273.873 225.98C273.873 225.545 273.77 225.192 273.873 224.84ZM283.073 219.66C283.115 219.203 283.053 218.741 282.892 218.31C282.73 217.88 282.473 217.491 282.14 217.174C281.772 216.995 281.361 216.924 280.955 216.968C280.548 217.011 280.162 217.169 279.84 217.423C278.877 218.003 278.09 218.834 277.561 219.826C276.97 220.923 276.643 222.144 276.608 223.39C276.608 224.094 276.608 224.861 276.608 225.69C276.608 226.518 276.608 227.285 276.608 227.969C276.566 228.422 276.629 228.88 276.795 229.304C276.96 229.729 277.223 230.109 277.561 230.414C277.924 230.601 278.333 230.677 278.738 230.633C279.144 230.589 279.527 230.426 279.84 230.165C280.773 229.593 281.537 228.786 282.057 227.824C282.642 226.732 282.961 225.519 282.99 224.281C282.99 223.576 282.99 222.81 282.99 221.96C282.99 221.111 283.093 220.323 283.073 219.66Z" fill="#37474F"/>
<path d="M297.679 204.018C297.736 203.976 297.805 203.953 297.876 203.953C297.947 203.953 298.016 203.976 298.073 204.018C298.133 204.068 298.179 204.132 298.208 204.204C298.236 204.276 298.247 204.355 298.239 204.432V206.359C298.23 206.569 298.173 206.775 298.073 206.96C297.988 207.14 297.851 207.292 297.679 207.395L294.033 209.467V224.322C294.024 224.533 293.967 224.738 293.867 224.923C293.782 225.104 293.645 225.255 293.474 225.358L291.837 226.311C291.78 226.353 291.711 226.376 291.64 226.376C291.569 226.376 291.5 226.353 291.443 226.311C291.382 226.262 291.335 226.198 291.306 226.126C291.277 226.053 291.267 225.974 291.277 225.897V211.062L287.631 213.134C287.574 213.176 287.505 213.199 287.434 213.199C287.363 213.199 287.294 213.176 287.237 213.134C287.18 213.082 287.136 213.017 287.107 212.946C287.079 212.874 287.066 212.797 287.071 212.72V210.793C287.077 210.575 287.134 210.363 287.237 210.171C287.323 209.991 287.46 209.839 287.631 209.736L297.679 204.018Z" fill="#37474F"/>
<path d="M313.612 194.818C313.666 194.778 313.732 194.756 313.799 194.756C313.866 194.756 313.932 194.778 313.985 194.818C314.046 194.868 314.093 194.931 314.122 195.004C314.151 195.077 314.161 195.155 314.151 195.233V197.16C314.155 197.372 314.098 197.58 313.985 197.761C313.901 197.941 313.773 198.098 313.612 198.216L307.127 201.946V207.208L313.198 203.707C313.254 203.661 313.323 203.637 313.395 203.637C313.467 203.637 313.536 203.661 313.592 203.707C313.65 203.762 313.695 203.83 313.724 203.906C313.753 203.981 313.764 204.062 313.757 204.142V206.048C313.752 206.265 313.695 206.478 313.592 206.67C313.506 206.85 313.369 207.002 313.198 207.105L307.127 210.606V216.822C307.118 217.032 307.062 217.238 306.962 217.423C306.883 217.601 306.753 217.753 306.589 217.858L304.931 218.811C304.877 218.851 304.812 218.873 304.745 218.873C304.677 218.873 304.612 218.851 304.558 218.811C304.496 218.763 304.447 218.7 304.418 218.627C304.389 218.554 304.38 218.474 304.392 218.397V200.889C304.388 200.67 304.446 200.455 304.558 200.268C304.637 200.089 304.767 199.938 304.931 199.832L313.612 194.818Z" fill="#37474F"/>
<path d="M315.871 200.599C315.914 199.551 316.06 198.51 316.306 197.491C316.554 196.457 316.922 195.456 317.404 194.508C317.908 193.563 318.52 192.68 319.227 191.876C319.985 191.054 320.865 190.355 321.838 189.804C322.614 189.307 323.492 188.988 324.407 188.872C325.064 188.815 325.72 188.999 326.251 189.39C326.771 189.845 327.158 190.432 327.37 191.089C327.639 191.934 327.786 192.813 327.805 193.7C327.805 194.031 327.805 194.404 327.805 194.818V197.388C327.805 197.802 327.805 198.196 327.805 198.548C327.762 199.596 327.616 200.636 327.37 201.656C327.122 202.683 326.753 203.678 326.272 204.619C325.777 205.574 325.157 206.459 324.428 207.25C323.674 208.068 322.801 208.766 321.838 209.322C321.049 209.825 320.157 210.144 319.227 210.254C318.579 210.316 317.931 210.139 317.404 209.757C316.875 209.314 316.492 208.722 316.306 208.058C316.042 207.219 315.895 206.347 315.871 205.468C315.871 205.116 315.871 204.743 315.871 204.328V201.759C315.829 201.324 315.85 200.889 315.871 200.599ZM325.07 195.419C325.113 194.96 325.049 194.496 324.884 194.065C324.719 193.634 324.456 193.246 324.117 192.933C323.755 192.746 323.345 192.669 322.94 192.713C322.534 192.758 322.151 192.92 321.838 193.182C320.866 193.751 320.076 194.584 319.559 195.585C318.965 196.681 318.638 197.902 318.606 199.149C318.606 199.853 318.606 200.62 318.606 201.449C318.606 202.277 318.606 203.044 318.606 203.728C318.563 204.181 318.627 204.639 318.792 205.063C318.958 205.488 319.22 205.867 319.559 206.172C319.921 206.36 320.33 206.436 320.736 206.392C321.141 206.348 321.525 206.185 321.838 205.924C322.798 205.349 323.586 204.526 324.117 203.541C324.708 202.451 325.035 201.238 325.07 199.998C325.07 199.294 325.07 198.527 325.07 197.678C325.07 196.828 325.091 196.082 325.07 195.419Z" fill="#37474F"/>
<path d="M341.479 178.74C341.535 178.695 341.605 178.67 341.676 178.67C341.748 178.67 341.818 178.695 341.873 178.74C341.929 178.797 341.971 178.866 341.996 178.941C342.022 179.017 342.029 179.097 342.018 179.176V190.281C342.029 191.368 341.91 192.453 341.666 193.513C341.422 194.542 341.053 195.537 340.568 196.476C340.073 197.407 339.46 198.27 338.745 199.045C337.998 199.854 337.14 200.551 336.196 201.117C335.423 201.606 334.554 201.924 333.648 202.049C333.007 202.141 332.355 201.986 331.824 201.614C331.295 201.167 330.919 200.566 330.747 199.895C330.485 198.979 330.366 198.029 330.395 197.077V185.971C330.394 185.762 330.443 185.556 330.54 185.371C330.632 185.189 330.767 185.032 330.933 184.915L332.591 183.962C332.645 183.921 332.71 183.9 332.777 183.9C332.845 183.9 332.91 183.921 332.964 183.962C333.022 184.017 333.068 184.085 333.096 184.16C333.125 184.236 333.136 184.316 333.13 184.397V195.357C333.113 195.952 333.19 196.547 333.358 197.118C333.458 197.488 333.676 197.816 333.979 198.051C334.272 198.223 334.619 198.282 334.953 198.216C335.393 198.133 335.814 197.972 336.196 197.74C336.649 197.476 337.067 197.156 337.439 196.787C337.833 196.403 338.168 195.963 338.434 195.481C338.713 194.957 338.929 194.4 339.076 193.824C339.234 193.145 339.31 192.449 339.304 191.752V180.771C339.313 180.561 339.37 180.355 339.47 180.17C339.549 179.986 339.688 179.833 339.863 179.735L341.479 178.74Z" fill="#37474F"/>
<path d="M354.325 190.281C354.243 190.328 354.15 190.353 354.056 190.353C353.961 190.353 353.868 190.328 353.787 190.281L353.517 190.053L347.84 182.242V193.389C347.834 193.606 347.778 193.819 347.674 194.01C347.595 194.195 347.456 194.348 347.281 194.445L345.644 195.399C345.586 195.438 345.517 195.459 345.447 195.459C345.377 195.459 345.308 195.438 345.25 195.399C345.194 195.346 345.149 195.282 345.12 195.21C345.092 195.138 345.08 195.061 345.085 194.984V177.477C345.094 177.266 345.15 177.061 345.25 176.876C345.342 176.699 345.478 176.55 345.644 176.441L347.074 175.612C347.301 175.467 347.467 175.467 347.592 175.612C347.689 175.678 347.779 175.755 347.861 175.84L353.538 183.817V172.504C353.544 172.287 353.6 172.074 353.704 171.883C353.789 171.702 353.926 171.551 354.097 171.447L355.734 170.494C355.791 170.452 355.86 170.43 355.931 170.43C356.002 170.43 356.071 170.452 356.128 170.494C356.185 170.547 356.229 170.611 356.258 170.683C356.286 170.754 356.299 170.832 356.294 170.909V188.458C356.285 188.668 356.228 188.873 356.128 189.059C356.042 189.239 355.905 189.391 355.734 189.494L354.325 190.281Z" fill="#37474F"/>
<path d="M364.933 165.128C365.735 164.642 366.62 164.312 367.544 164.154C368.191 164.067 368.848 164.222 369.388 164.589C369.936 165.022 370.335 165.617 370.527 166.288C370.824 167.199 370.985 168.149 371.004 169.106C371.004 170.411 371.004 171.758 371.004 173.126C370.963 174.258 370.803 175.383 370.527 176.482C370.289 177.529 369.913 178.539 369.409 179.486C368.918 180.414 368.305 181.271 367.585 182.035C366.843 182.847 365.984 183.546 365.037 184.107L359.919 187.049C359.867 187.093 359.801 187.117 359.733 187.117C359.665 187.117 359.599 187.093 359.546 187.049C359.484 186.997 359.436 186.929 359.407 186.853C359.378 186.777 359.369 186.694 359.381 186.614V169.085C359.377 168.873 359.434 168.665 359.546 168.485C359.625 168.3 359.754 168.142 359.919 168.029L364.933 165.128ZM368.269 170.681C368.26 170.188 368.176 169.699 368.02 169.23C367.909 168.866 367.693 168.541 367.399 168.298C367.25 168.185 367.079 168.103 366.898 168.057C366.716 168.011 366.527 168.001 366.342 168.029C365.805 168.111 365.291 168.301 364.83 168.588L362.116 170.163V182.346L364.933 180.709C365.472 180.405 365.961 180.021 366.384 179.569C366.793 179.14 367.135 178.651 367.399 178.119C367.677 177.596 367.886 177.038 368.02 176.461C368.166 175.885 368.249 175.294 368.269 174.7C368.414 173.333 368.414 172.007 368.352 170.681H368.269Z" fill="#37474F"/>
</svg>
