<svg width="33" height="33" viewBox="0 0 33 33" fill="none" xmlns="http://www.w3.org/2000/svg">
<path d="M26.5 4.5H23.5V3.5C23.5 3.23478 23.3946 2.98043 23.2071 2.79289C23.0196 2.60536 22.7652 2.5 22.5 2.5C22.2348 2.5 21.9804 2.60536 21.7929 2.79289C21.6054 2.98043 21.5 3.23478 21.5 3.5V4.5H11.5V3.5C11.5 3.23478 11.3946 2.98043 11.2071 2.79289C11.0196 2.60536 10.7652 2.5 10.5 2.5C10.2348 2.5 9.98043 2.60536 9.79289 2.79289C9.60536 2.98043 9.5 3.23478 9.5 3.5V4.5H6.5C5.96957 4.5 5.46086 4.71071 5.08579 5.08579C4.71071 5.46086 4.5 5.96957 4.5 6.5V26.5C4.5 27.0304 4.71071 27.5391 5.08579 27.9142C5.46086 28.2893 5.96957 28.5 6.5 28.5H26.5C27.0304 28.5 27.5391 28.2893 27.9142 27.9142C28.2893 27.5391 28.5 27.0304 28.5 26.5V6.5C28.5 5.96957 28.2893 5.46086 27.9142 5.08579C27.5391 4.71071 27.0304 4.5 26.5 4.5ZM9.5 6.5V7.5C9.5 7.76522 9.60536 8.01957 9.79289 8.20711C9.98043 8.39464 10.2348 8.5 10.5 8.5C10.7652 8.5 11.0196 8.39464 11.2071 8.20711C11.3946 8.01957 11.5 7.76522 11.5 7.5V6.5H21.5V7.5C21.5 7.76522 21.6054 8.01957 21.7929 8.20711C21.9804 8.39464 22.2348 8.5 22.5 8.5C22.7652 8.5 23.0196 8.39464 23.2071 8.20711C23.3946 8.01957 23.5 7.76522 23.5 7.5V6.5H26.5V10.5H6.5V6.5H9.5ZM26.5 26.5H6.5V12.5H26.5V26.5ZM18 17C18 17.2967 17.912 17.5867 17.7472 17.8334C17.5824 18.08 17.3481 18.2723 17.074 18.3858C16.7999 18.4993 16.4983 18.5291 16.2074 18.4712C15.9164 18.4133 15.6491 18.2704 15.4393 18.0607C15.2296 17.8509 15.0867 17.5836 15.0288 17.2926C14.9709 17.0017 15.0006 16.7001 15.1142 16.426C15.2277 16.1519 15.42 15.9176 15.6666 15.7528C15.9133 15.588 16.2033 15.5 16.5 15.5C16.8978 15.5 17.2794 15.658 17.5607 15.9393C17.842 16.2206 18 16.6022 18 17ZM23.5 17C23.5 17.2967 23.412 17.5867 23.2472 17.8334C23.0824 18.08 22.8481 18.2723 22.574 18.3858C22.2999 18.4993 21.9983 18.5291 21.7074 18.4712C21.4164 18.4133 21.1491 18.2704 20.9393 18.0607C20.7296 17.8509 20.5867 17.5836 20.5288 17.2926C20.4709 17.0017 20.5007 16.7001 20.6142 16.426C20.7277 16.1519 20.92 15.9176 21.1666 15.7528C21.4133 15.588 21.7033 15.5 22 15.5C22.3978 15.5 22.7794 15.658 23.0607 15.9393C23.342 16.2206 23.5 16.6022 23.5 17ZM12.5 22C12.5 22.2967 12.412 22.5867 12.2472 22.8334C12.0824 23.08 11.8481 23.2723 11.574 23.3858C11.2999 23.4993 10.9983 23.5291 10.7074 23.4712C10.4164 23.4133 10.1491 23.2704 9.93934 23.0607C9.72956 22.8509 9.5867 22.5836 9.52882 22.2926C9.47094 22.0017 9.50065 21.7001 9.61418 21.426C9.72771 21.1519 9.91997 20.9176 10.1666 20.7528C10.4133 20.588 10.7033 20.5 11 20.5C11.3978 20.5 11.7794 20.658 12.0607 20.9393C12.342 21.2206 12.5 21.6022 12.5 22ZM18 22C18 22.2967 17.912 22.5867 17.7472 22.8334C17.5824 23.08 17.3481 23.2723 17.074 23.3858C16.7999 23.4993 16.4983 23.5291 16.2074 23.4712C15.9164 23.4133 15.6491 23.2704 15.4393 23.0607C15.2296 22.8509 15.0867 22.5836 15.0288 22.2926C14.9709 22.0017 15.0006 21.7001 15.1142 21.426C15.2277 21.1519 15.42 20.9176 15.6666 20.7528C15.9133 20.588 16.2033 20.5 16.5 20.5C16.8978 20.5 17.2794 20.658 17.5607 20.9393C17.842 21.2206 18 21.6022 18 22ZM23.5 22C23.5 22.2967 23.412 22.5867 23.2472 22.8334C23.0824 23.08 22.8481 23.2723 22.574 23.3858C22.2999 23.4993 21.9983 23.5291 21.7074 23.4712C21.4164 23.4133 21.1491 23.2704 20.9393 23.0607C20.7296 22.8509 20.5867 22.5836 20.5288 22.2926C20.4709 22.0017 20.5007 21.7001 20.6142 21.426C20.7277 21.1519 20.92 20.9176 21.1666 20.7528C21.4133 20.588 21.7033 20.5 22 20.5C22.3978 20.5 22.7794 20.658 23.0607 20.9393C23.342 21.2206 23.5 21.6022 23.5 22Z" fill="#1A1A1A"/>
</svg>
