<svg width="20" height="20" viewBox="0 0 20 20" fill="none" xmlns="http://www.w3.org/2000/svg">
<g clip-path="url(#clip0_1063_27)">
<path d="M6.96719 0.658267C4.96888 1.3515 3.24554 2.66728 2.05031 4.41233C0.855067 6.15739 0.250931 8.23974 0.326635 10.3535C0.40234 12.4673 1.15389 14.5011 2.47091 16.1562C3.78792 17.8113 5.60097 19.0004 7.64376 19.5489C9.29989 19.9762 11.035 19.995 12.7 19.6036C14.2083 19.2648 15.6028 18.5401 16.7469 17.5005C17.9376 16.3854 18.8019 14.9668 19.2469 13.3973C19.7303 11.6905 19.8164 9.89567 19.4984 8.15046H10.1984V12.0083H15.5844C15.4767 12.6236 15.2461 13.2108 14.9062 13.7349C14.5663 14.2589 14.1242 14.7091 13.6063 15.0583C12.9487 15.4935 12.2072 15.7862 11.4297 15.9176C10.6499 16.0627 9.85009 16.0627 9.07032 15.9176C8.27993 15.7544 7.53226 15.4282 6.87501 14.9598C5.81899 14.2123 5.02606 13.1503 4.60938 11.9255C4.18577 10.6776 4.18577 9.32486 4.60938 8.07702C4.90599 7.20236 5.39631 6.40598 6.04376 5.74733C6.78468 4.97975 7.72271 4.43108 8.75494 4.16151C9.78716 3.89195 10.8737 3.91191 11.8953 4.21921C12.6934 4.46409 13.4233 4.89214 14.0266 5.46921C14.6339 4.86504 15.2401 4.25931 15.8453 3.65202C16.1578 3.32546 16.4984 3.01452 16.8063 2.68014C15.8852 1.82314 14.8042 1.15624 13.625 0.717642C11.4777 -0.0620611 9.1281 -0.0830149 6.96719 0.658267Z" fill="white"/>
<path d="M6.96718 0.65805C9.1279 -0.0837359 11.4775 -0.0633337 13.625 0.715863C14.8044 1.15744 15.8849 1.82755 16.8047 2.68774C16.4922 3.02211 16.1625 3.33461 15.8437 3.65961C15.2375 4.26482 14.6318 4.86795 14.0266 5.46899C13.4233 4.89192 12.6934 4.46387 11.8953 4.21899C10.874 3.91061 9.78752 3.8895 8.75502 4.15796C7.72253 4.42642 6.78392 4.97408 6.04218 5.74086C5.39473 6.39951 4.90441 7.19589 4.60781 8.07055L1.36874 5.56274C2.52813 3.26361 4.53554 1.50496 6.96718 0.65805Z" fill="#E33629"/>
<path d="M0.509374 8.04687C0.683342 7.18402 0.972383 6.34843 1.36875 5.5625L4.60781 8.07656C4.1842 9.3244 4.1842 10.6772 4.60781 11.925C3.52864 12.7583 2.44896 13.5958 1.36875 14.4375C0.376796 12.463 0.0742684 10.2133 0.509374 8.04687Z" fill="#F8BD00"/>
<path d="M10.1984 8.14844H19.4984C19.8164 9.89366 19.7303 11.6885 19.2469 13.3953C18.8019 14.9648 17.9376 16.3834 16.7469 17.4984C15.7016 16.6828 14.6516 15.8734 13.6062 15.0578C14.1245 14.7082 14.5668 14.2576 14.9067 13.733C15.2466 13.2084 15.4771 12.6205 15.5844 12.0047H10.1984C10.1969 10.7203 10.1984 9.43438 10.1984 8.14844Z" fill="#587DBD"/>
<path d="M1.36719 14.4373C2.4474 13.604 3.52708 12.7665 4.60625 11.9248C5.02376 13.1501 5.81782 14.2121 6.875 14.9592C7.5343 15.4254 8.28359 15.7489 9.075 15.9092C9.85477 16.0542 10.6546 16.0542 11.4344 15.9092C12.2119 15.7778 12.9533 15.485 13.6109 15.0498C14.6563 15.8654 15.7063 16.6748 16.7516 17.4904C15.6076 18.5306 14.2132 19.2559 12.7047 19.5951C11.0397 19.9865 9.30457 19.9678 7.64844 19.5404C6.3386 19.1907 5.11512 18.5742 4.05469 17.7295C2.93239 16.8383 2.01568 15.7153 1.36719 14.4373Z" fill="#319F43"/>
</g>
<defs>
<clipPath id="clip0_1063_27">
<rect width="20" height="20" fill="white"/>
</clipPath>
</defs>
</svg>
