<svg width="26" height="26" viewBox="0 0 26 26" fill="none" xmlns="http://www.w3.org/2000/svg">
<path d="M14.5 19.5C14.5 19.7967 14.412 20.0867 14.2472 20.3334C14.0824 20.58 13.8481 20.7723 13.574 20.8858C13.2999 20.9993 12.9983 21.0291 12.7074 20.9712C12.4164 20.9133 12.1491 20.7704 11.9393 20.5607C11.7296 20.3509 11.5867 20.0836 11.5288 19.7926C11.471 19.5017 11.5007 19.2001 11.6142 18.926C11.7277 18.6519 11.92 18.4176 12.1667 18.2528C12.4133 18.088 12.7033 18 13 18C13.3978 18 13.7794 18.158 14.0607 18.4393C14.342 18.7206 14.5 19.1022 14.5 19.5ZM13 6C10.2425 6 8.00001 8.01875 8.00001 10.5V11C8.00001 11.2652 8.10536 11.5196 8.2929 11.7071C8.48044 11.8946 8.73479 12 9.00001 12C9.26522 12 9.51958 11.8946 9.70711 11.7071C9.89465 11.5196 10 11.2652 10 11V10.5C10 9.125 11.3463 8 13 8C14.6538 8 16 9.125 16 10.5C16 11.875 14.6538 13 13 13C12.7348 13 12.4804 13.1054 12.2929 13.2929C12.1054 13.4804 12 13.7348 12 14V15C12 15.2652 12.1054 15.5196 12.2929 15.7071C12.4804 15.8946 12.7348 16 13 16C13.2652 16 13.5196 15.8946 13.7071 15.7071C13.8946 15.5196 14 15.2652 14 15V14.91C16.28 14.4913 18 12.6725 18 10.5C18 8.01875 15.7575 6 13 6ZM26 13C26 15.5712 25.2376 18.0846 23.8091 20.2224C22.3807 22.3603 20.3503 24.0265 17.9749 25.0104C15.5995 25.9944 12.9856 26.2518 10.4638 25.7502C7.94208 25.2486 5.6257 24.0105 3.80762 22.1924C1.98953 20.3743 0.751405 18.0579 0.249797 15.5362C-0.251811 13.0144 0.0056327 10.4006 0.989572 8.02512C1.97351 5.64968 3.63975 3.61935 5.77759 2.1909C7.91543 0.762437 10.4288 0 13 0C16.4467 0.00363977 19.7512 1.37445 22.1884 3.81163C24.6256 6.24882 25.9964 9.5533 26 13ZM24 13C24 10.8244 23.3549 8.69767 22.1462 6.88873C20.9375 5.07979 19.2195 3.66989 17.2095 2.83733C15.1995 2.00476 12.9878 1.78692 10.854 2.21136C8.72022 2.6358 6.76021 3.68345 5.22183 5.22183C3.68345 6.7602 2.63581 8.72022 2.21137 10.854C1.78693 12.9878 2.00477 15.1995 2.83733 17.2095C3.66989 19.2195 5.07979 20.9375 6.88873 22.1462C8.69767 23.3549 10.8244 24 13 24C15.9164 23.9967 18.7123 22.8367 20.7745 20.7745C22.8367 18.7123 23.9967 15.9164 24 13Z" fill="black"/>
</svg>
