<svg width="24" height="21" viewBox="0 0 24 21" fill="none" xmlns="http://www.w3.org/2000/svg">
<path d="M16.6949 10.9385L9.69491 17.1341C9.62987 17.1917 9.55266 17.2374 9.46768 17.2685C9.38271 17.2997 9.29163 17.3157 9.19966 17.3157C9.10768 17.3157 9.0166 17.2997 8.93163 17.2685C8.84665 17.2374 8.76944 17.1917 8.70441 17.1341C8.63937 17.0766 8.58778 17.0082 8.55258 16.933C8.51738 16.8578 8.49927 16.7772 8.49927 16.6958C8.49927 16.6144 8.51738 16.5338 8.55258 16.4586C8.58778 16.3833 8.63937 16.315 8.70441 16.2574L15.21 10.5001L8.70441 4.74282C8.57306 4.62657 8.49927 4.46889 8.49927 4.30448C8.49927 4.14007 8.57306 3.98239 8.70441 3.86614C8.83575 3.74988 9.0139 3.68457 9.19966 3.68457C9.38541 3.68457 9.56356 3.74988 9.69491 3.86614L16.6949 10.0618C16.76 10.1193 16.8116 10.1877 16.8468 10.2629C16.8821 10.3381 16.9002 10.4187 16.9002 10.5001C16.9002 10.5816 16.8821 10.6622 16.8468 10.7374C16.8116 10.8126 16.76 10.8809 16.6949 10.9385Z" fill="#F8FFF8"/>
</svg>
