<svg width="24" height="21" viewBox="0 0 24 21" fill="none" xmlns="http://www.w3.org/2000/svg">
<path d="M15.2954 16.2574C15.3604 16.315 15.412 16.3833 15.4472 16.4586C15.4824 16.5338 15.5005 16.6144 15.5005 16.6958C15.5005 16.7772 15.4824 16.8578 15.4472 16.933C15.412 17.0082 15.3604 17.0766 15.2954 17.1341C15.2304 17.1917 15.1532 17.2374 15.0682 17.2685C14.9832 17.2997 14.8921 17.3157 14.8002 17.3157C14.7082 17.3157 14.6171 17.2997 14.5321 17.2685C14.4472 17.2374 14.3699 17.1917 14.3049 17.1341L7.30491 10.9385C7.23983 10.8809 7.1882 10.8126 7.15297 10.7374C7.11774 10.6622 7.09961 10.5816 7.09961 10.5001C7.09961 10.4187 7.11774 10.3381 7.15297 10.2629C7.1882 10.1877 7.23983 10.1193 7.30491 10.0618L14.3049 3.86614C14.4363 3.74988 14.6144 3.68457 14.8002 3.68457C14.9859 3.68457 15.1641 3.74988 15.2954 3.86614C15.4268 3.98239 15.5005 4.14007 15.5005 4.30448C15.5005 4.46889 15.4268 4.62657 15.2954 4.74282L8.78978 10.5001L15.2954 16.2574Z" fill="#F8FFF8"/>
</svg>
