<svg width="103" height="111" viewBox="0 0 103 111" fill="none" xmlns="http://www.w3.org/2000/svg">
<path d="M93.6875 8.875H81.0312V4.65625C81.0312 3.53737 80.5868 2.46431 79.7956 1.67314C79.0044 0.881974 77.9314 0.4375 76.8125 0.4375C75.6936 0.4375 74.6206 0.881974 73.8294 1.67314C73.0382 2.46431 72.5938 3.53737 72.5938 4.65625V8.875H30.4062V4.65625C30.4062 3.53737 29.9618 2.46431 29.1706 1.67314C28.3794 0.881974 27.3064 0.4375 26.1875 0.4375C25.0686 0.4375 23.9956 0.881974 23.2044 1.67314C22.4132 2.46431 21.9688 3.53737 21.9688 4.65625V8.875H9.3125C7.07474 8.875 4.92862 9.76395 3.34629 11.3463C1.76395 12.9286 0.875 15.0747 0.875 17.3125V101.688C0.875 103.925 1.76395 106.071 3.34629 107.654C4.92862 109.236 7.07474 110.125 9.3125 110.125H93.6875C95.9253 110.125 98.0714 109.236 99.6537 107.654C101.236 106.071 102.125 103.925 102.125 101.688V17.3125C102.125 15.0747 101.236 12.9286 99.6537 11.3463C98.0714 9.76395 95.9253 8.875 93.6875 8.875ZM21.9688 17.3125V21.5312C21.9688 22.6501 22.4132 23.7232 23.2044 24.5144C23.9956 25.3055 25.0686 25.75 26.1875 25.75C27.3064 25.75 28.3794 25.3055 29.1706 24.5144C29.9618 23.7232 30.4062 22.6501 30.4062 21.5312V17.3125H72.5938V21.5312C72.5938 22.6501 73.0382 23.7232 73.8294 24.5144C74.6206 25.3055 75.6936 25.75 76.8125 25.75C77.9314 25.75 79.0044 25.3055 79.7956 24.5144C80.5868 23.7232 81.0312 22.6501 81.0312 21.5312V17.3125H93.6875V34.1875H9.3125V17.3125H21.9688ZM93.6875 101.688H9.3125V42.625H93.6875V101.688ZM43.0625 55.2812V89.0312C43.0625 90.1501 42.618 91.2232 41.8269 92.0144C41.0357 92.8055 39.9626 93.25 38.8438 93.25C37.7249 93.25 36.6518 92.8055 35.8606 92.0144C35.0695 91.2232 34.625 90.1501 34.625 89.0312V62.1051L32.2941 63.2758C31.2927 63.7765 30.1335 63.8589 29.0713 63.5048C28.0092 63.1508 27.1312 62.3893 26.6305 61.3879C26.1298 60.3865 26.0474 59.2272 26.4014 58.1651C26.7555 57.1029 27.517 56.2249 28.5184 55.7242L36.9559 51.5055C37.5993 51.1835 38.3144 51.0314 39.0331 51.0637C39.7519 51.096 40.4504 51.3116 41.0624 51.69C41.6743 52.0684 42.1794 52.597 42.5294 53.2255C42.8795 53.8541 43.063 54.5618 43.0625 55.2812ZM74.2602 71.3389L64.1562 84.8125H72.5938C73.7126 84.8125 74.7857 85.257 75.5769 86.0481C76.368 86.8393 76.8125 87.9124 76.8125 89.0312C76.8125 90.1501 76.368 91.2232 75.5769 92.0144C74.7857 92.8055 73.7126 93.25 72.5938 93.25H55.7188C54.9353 93.25 54.1673 93.0318 53.5008 92.6199C52.8344 92.208 52.2958 91.6187 51.9454 90.9179C51.595 90.2172 51.4467 89.4327 51.517 88.6524C51.5874 87.8721 51.8737 87.1268 52.3438 86.5L67.5207 66.2658C67.8659 65.8063 68.1136 65.281 68.2485 64.7222C68.3834 64.1635 68.4027 63.5831 68.3052 63.0167C68.2078 62.4502 67.9956 61.9096 67.6817 61.4281C67.3678 60.9466 66.9588 60.5343 66.4798 60.2166C66.0008 59.8988 65.462 59.6823 64.8963 59.5803C64.3306 59.4783 63.7501 59.4929 63.1903 59.6234C62.6305 59.7538 62.1033 59.9972 61.641 60.3387C61.1786 60.6803 60.791 61.1126 60.5018 61.6094C60.2329 62.1045 59.8676 62.5407 59.4275 62.8923C58.9873 63.2439 58.4812 63.5038 57.939 63.6567C57.3968 63.8095 56.8294 63.8522 56.2704 63.7823C55.7114 63.7123 55.1721 63.5311 54.6842 63.2493C54.1964 62.9675 53.7699 62.5909 53.43 62.1416C53.0901 61.6924 52.8436 61.1796 52.7051 60.6335C52.5666 60.0875 52.5388 59.5192 52.6235 58.9622C52.7082 58.4052 52.9035 57.8709 53.198 57.3906C54.5916 54.979 56.7418 53.0945 59.3153 52.0291C61.8888 50.9638 64.7419 50.7771 67.4322 51.498C70.1226 52.219 72.5 53.8073 74.1959 56.0168C75.8919 58.2262 76.8116 60.9335 76.8125 63.7188C76.8214 66.4701 75.9245 69.148 74.2602 71.3389Z" fill="white"/>
</svg>
