<svg width="32" height="32" viewBox="0 0 32 32" fill="none" xmlns="http://www.w3.org/2000/svg">
<path d="M30 26.0003H28V17.0003L28.2925 17.2928C28.4805 17.4805 28.7353 17.5857 29.0009 17.5855C29.2665 17.5853 29.5211 17.4795 29.7087 17.2916C29.8964 17.1036 30.0017 16.8488 30.0014 16.5832C30.0012 16.3176 29.8955 16.063 29.7075 15.8753L17.4137 3.58532C17.0387 3.21053 16.5302 3 16 3C15.4698 3 14.9613 3.21053 14.5863 3.58532L2.2925 15.8753C2.10503 16.063 1.99977 16.3174 1.99989 16.5826C2 16.8479 2.10548 17.1022 2.29312 17.2897C2.48077 17.4772 2.7352 17.5824 3.00044 17.5823C3.26569 17.5822 3.52003 17.4767 3.7075 17.2891L4 17.0003V26.0003H2C1.73478 26.0003 1.48043 26.1057 1.29289 26.2932C1.10536 26.4808 1 26.7351 1 27.0003C1 27.2655 1.10536 27.5199 1.29289 27.7074C1.48043 27.895 1.73478 28.0003 2 28.0003H30C30.2652 28.0003 30.5196 27.895 30.7071 27.7074C30.8946 27.5199 31 27.2655 31 27.0003C31 26.7351 30.8946 26.4808 30.7071 26.2932C30.5196 26.1057 30.2652 26.0003 30 26.0003ZM6 15.0003L16 5.00032L26 15.0003V26.0003H20V19.0003C20 18.7351 19.8946 18.4808 19.7071 18.2932C19.5196 18.1057 19.2652 18.0003 19 18.0003H13C12.7348 18.0003 12.4804 18.1057 12.2929 18.2932C12.1054 18.4808 12 18.7351 12 19.0003V26.0003H6V15.0003ZM18 26.0003H14V20.0003H18V26.0003Z" fill="#F8FFF8"/>
</svg>
