<svg width="32" height="32" viewBox="0 0 32 32" fill="none" xmlns="http://www.w3.org/2000/svg">
<path d="M27 6H5.00004C4.4696 6 3.9609 6.21071 3.58582 6.58579C3.21075 6.96086 3.00004 7.46957 3.00004 8V28C2.99773 28.3814 3.10562 28.7553 3.31074 29.0768C3.51585 29.3984 3.80947 29.6538 4.15629 29.8125C4.42057 29.9356 4.7085 29.9995 5.00004 30C5.46954 29.9989 5.92347 29.8315 6.28129 29.5275L6.29254 29.5187L10.375 26H27C27.5305 26 28.0392 25.7893 28.4142 25.4142C28.7893 25.0391 29 24.5304 29 24V8C29 7.46957 28.7893 6.96086 28.4142 6.58579C28.0392 6.21071 27.5305 6 27 6ZM27 24H10C9.75992 24.0001 9.52787 24.0866 9.34629 24.2437L5.00004 28V8H27V24Z" fill="#F8FFF8"/>
</svg>
