<svg width="32" height="32" viewBox="0 0 32 32" fill="none" xmlns="http://www.w3.org/2000/svg">
<g clip-path="url(#clip0_1977_4476)">
<path d="M11 6V2C11 1.73478 11.1054 1.48043 11.2929 1.29289C11.4804 1.10536 11.7348 1 12 1C12.2652 1 12.5196 1.10536 12.7071 1.29289C12.8946 1.48043 13 1.73478 13 2V6C13 6.26522 12.8946 6.51957 12.7071 6.70711C12.5196 6.89464 12.2652 7 12 7C11.7348 7 11.4804 6.89464 11.2929 6.70711C11.1054 6.51957 11 6.26522 11 6ZM16 7C16.2652 7 16.5196 6.89464 16.7071 6.70711C16.8946 6.51957 17 6.26522 17 6V2C17 1.73478 16.8946 1.48043 16.7071 1.29289C16.5196 1.10536 16.2652 1 16 1C15.7348 1 15.4804 1.10536 15.2929 1.29289C15.1054 1.48043 15 1.73478 15 2V6C15 6.26522 15.1054 6.51957 15.2929 6.70711C15.4804 6.89464 15.7348 7 16 7ZM20 7C20.2652 7 20.5196 6.89464 20.7071 6.70711C20.8946 6.51957 21 6.26522 21 6V2C21 1.73478 20.8946 1.48043 20.7071 1.29289C20.5196 1.10536 20.2652 1 20 1C19.7348 1 19.4804 1.10536 19.2929 1.29289C19.1054 1.48043 19 1.73478 19 2V6C19 6.26522 19.1054 6.51957 19.2929 6.70711C19.4804 6.89464 19.7348 7 20 7ZM31.6 12.8L28 15.5V23C28 24.0609 27.5786 25.0783 26.8284 25.8284C26.0783 26.5786 25.0609 27 24 27H8C6.93914 27 5.92172 26.5786 5.17158 25.8284C4.42143 25.0783 4 24.0609 4 23V15.5L0.400004 12.8C0.187831 12.6409 0.0475619 12.404 0.0100546 12.1414C-0.0274527 11.8789 0.0408742 11.6122 0.200004 11.4C0.359134 11.1878 0.596032 11.0476 0.858583 11.0101C1.12113 10.9725 1.38783 11.0409 1.6 11.2L4 13V10C4 9.73478 4.10536 9.48043 4.2929 9.29289C4.48043 9.10536 4.73479 9 5 9H27C27.2652 9 27.5196 9.10536 27.7071 9.29289C27.8946 9.48043 28 9.73478 28 10V13L30.4 11.2C30.6122 11.0409 30.8789 10.9725 31.1414 11.0101C31.404 11.0476 31.6409 11.1878 31.8 11.4C31.9591 11.6122 32.0275 11.8789 31.99 12.1414C31.9524 12.404 31.8122 12.6409 31.6 12.8ZM26 11H6V23C6 23.5304 6.21072 24.0391 6.58579 24.4142C6.96086 24.7893 7.46957 25 8 25H24C24.5304 25 25.0391 24.7893 25.4142 24.4142C25.7893 24.0391 26 23.5304 26 23V11Z" fill="#48B75A"/>
</g>
<defs>
<clipPath id="clip0_1977_4476">
<rect width="32" height="32" fill="white"/>
</clipPath>
</defs>
</svg>
