<svg width="32" height="32" viewBox="0 0 32 32" fill="none" xmlns="http://www.w3.org/2000/svg">
<path d="M27 5H9C8.46957 5 7.96086 5.21071 7.58579 5.58579C7.21071 5.96086 7 6.46957 7 7V9H5C4.46957 9 3.96086 9.21071 3.58579 9.58579C3.21071 9.96086 3 10.4696 3 11V25C3 25.5304 3.21071 26.0391 3.58579 26.4142C3.96086 26.7893 4.46957 27 5 27H23C23.5304 27 24.0391 26.7893 24.4142 26.4142C24.7893 26.0391 25 25.5304 25 25V23H27C27.5304 23 28.0391 22.7893 28.4142 22.4142C28.7893 22.0391 29 21.5304 29 21V7C29 6.46957 28.7893 5.96086 28.4142 5.58579C28.0391 5.21071 27.5304 5 27 5ZM9 7H27V14.8438L25.7412 13.5863C25.5555 13.4005 25.335 13.2531 25.0923 13.1526C24.8497 13.052 24.5896 13.0003 24.3269 13.0003C24.0642 13.0003 23.8041 13.052 23.5614 13.1526C23.3187 13.2531 23.0982 13.4005 22.9125 13.5863L20.4125 16.0863L14.9125 10.5863C14.5375 10.2115 14.029 10.0009 13.4987 10.0009C12.9685 10.0009 12.46 10.2115 12.085 10.5863L9 13.6713V7ZM23 25H5V11H7V21C7 21.5304 7.21071 22.0391 7.58579 22.4142C7.96086 22.7893 8.46957 23 9 23H23V25ZM27 21H9V16.5L13.5 12L19.7075 18.2075C19.895 18.3949 20.1493 18.5002 20.4144 18.5002C20.6795 18.5002 20.9337 18.3949 21.1213 18.2075L24.3288 15L27 17.6725V21ZM20 10.5C20 10.2033 20.088 9.91332 20.2528 9.66665C20.4176 9.41997 20.6519 9.22771 20.926 9.11418C21.2001 9.00065 21.5017 8.97094 21.7926 9.02882C22.0836 9.0867 22.3509 9.22956 22.5607 9.43934C22.7704 9.64912 22.9133 9.91639 22.9712 10.2074C23.0291 10.4983 22.9993 10.7999 22.8858 11.074C22.7723 11.3481 22.58 11.5824 22.3334 11.7472C22.0867 11.912 21.7967 12 21.5 12C21.1022 12 20.7206 11.842 20.4393 11.5607C20.158 11.2794 20 10.8978 20 10.5Z" fill="#F8FFF8"/>
</svg>
