<svg width="32" height="32" viewBox="0 0 32 32" fill="none" xmlns="http://www.w3.org/2000/svg">
<path d="M14.6563 19.7401C15.9966 18.8479 17.0141 17.548 17.5584 16.0327C18.1028 14.5174 18.145 12.8671 17.6789 11.326C17.2129 9.78483 16.2632 8.43458 14.9703 7.4749C13.6775 6.51522 12.1102 5.99707 10.5001 5.99707C8.88997 5.99707 7.32261 6.51522 6.02978 7.4749C4.73694 8.43458 3.78726 9.78483 3.32118 11.326C2.85509 12.8671 2.89734 14.5174 3.44168 16.0327C3.98603 17.548 5.00356 18.8479 6.34381 19.7401C3.91943 20.6337 1.84894 22.2872 0.441312 24.4539C0.367332 24.5638 0.315945 24.6874 0.290139 24.8174C0.264332 24.9474 0.264621 25.0812 0.290989 25.2111C0.317356 25.3409 0.369276 25.4643 0.44373 25.5739C0.518185 25.6835 0.613688 25.7773 0.72469 25.8497C0.835692 25.9221 0.959977 25.9717 1.09032 25.9956C1.22067 26.0196 1.35447 26.0174 1.48396 25.9892C1.61344 25.9609 1.73603 25.9073 1.84458 25.8312C1.95314 25.7552 2.04551 25.6584 2.11631 25.5464C3.0243 24.1498 4.26676 23.0023 5.73086 22.2078C7.19496 21.4134 8.83432 20.9973 10.5001 20.9973C12.1658 20.9973 13.8052 21.4134 15.2693 22.2078C16.7334 23.0023 17.9758 24.1498 18.8838 25.5464C19.0305 25.7644 19.257 25.9159 19.5145 25.9681C19.772 26.0204 20.0397 25.9692 20.2598 25.8257C20.4799 25.6822 20.6346 25.4578 20.6906 25.2011C20.7465 24.9444 20.6992 24.676 20.5588 24.4539C19.1512 22.2872 17.0807 20.6337 14.6563 19.7401ZM5.00006 13.5001C5.00006 12.4123 5.32263 11.3489 5.92698 10.4445C6.53133 9.54001 7.39031 8.83506 8.3953 8.41878C9.4003 8.00249 10.5062 7.89358 11.5731 8.10579C12.64 8.31801 13.62 8.84184 14.3891 9.61103C15.1583 10.3802 15.6822 11.3602 15.8944 12.4271C16.1066 13.494 15.9977 14.5999 15.5814 15.6049C15.1651 16.6099 14.4602 17.4688 13.5557 18.0732C12.6512 18.6775 11.5879 19.0001 10.5001 19.0001C9.04188 18.9985 7.64389 18.4185 6.6128 17.3874C5.58171 16.3563 5.00172 14.9583 5.00006 13.5001ZM31.2676 25.8376C31.0454 25.9825 30.7749 26.0331 30.5154 25.9785C30.2559 25.9239 30.0287 25.7685 29.8838 25.5464C28.9769 24.149 27.7346 23.0009 26.2702 22.2068C24.8058 21.4127 23.1659 20.9979 21.5001 21.0001C21.2348 21.0001 20.9805 20.8948 20.793 20.7072C20.6054 20.5197 20.5001 20.2653 20.5001 20.0001C20.5001 19.7349 20.6054 19.4805 20.793 19.293C20.9805 19.1055 21.2348 19.0001 21.5001 19.0001C22.31 18.9993 23.1098 18.8197 23.8423 18.474C24.5748 18.1283 25.2219 17.6251 25.7373 17.0003C26.2528 16.3756 26.6239 15.6447 26.8242 14.8598C27.0244 14.075 27.0488 13.2557 26.8957 12.4603C26.7426 11.6649 26.4157 10.9132 25.9383 10.2589C25.461 9.60449 24.845 9.06362 24.1344 8.6749C23.4239 8.28619 22.6362 8.05921 21.8277 8.0102C21.0192 7.96118 20.2099 8.09134 19.4576 8.39136C19.3349 8.44439 19.2028 8.47229 19.0692 8.47342C18.9356 8.47455 18.8031 8.44889 18.6795 8.39794C18.556 8.34699 18.4439 8.2718 18.3499 8.1768C18.2559 8.0818 18.1819 7.96893 18.1323 7.84485C18.0827 7.72077 18.0584 7.588 18.0609 7.45439C18.0635 7.32077 18.0928 7.18903 18.1471 7.06693C18.2015 6.94483 18.2797 6.83486 18.3772 6.74352C18.4748 6.65218 18.5897 6.58131 18.7151 6.53511C20.4369 5.84843 22.352 5.82372 24.091 6.46575C25.83 7.10778 27.2696 8.37106 28.1321 10.0119C28.9946 11.6527 29.2189 13.5548 28.7617 15.3513C28.3045 17.1477 27.1982 18.7112 25.6563 19.7401C28.0807 20.6337 30.1512 22.2872 31.5588 24.4539C31.7037 24.676 31.7543 24.9466 31.6997 25.2061C31.6451 25.4655 31.4897 25.6927 31.2676 25.8376Z" fill="#F8FFF8"/>
</svg>
