<svg width="50" height="50" viewBox="0 0 50 50" fill="none" xmlns="http://www.w3.org/2000/svg">
<path d="M25 4.6875C20.9826 4.6875 17.0554 5.87881 13.715 8.11077C10.3746 10.3427 7.77111 13.5151 6.23371 17.2267C4.6963 20.9384 4.29405 25.0225 5.07781 28.9628C5.86157 32.903 7.79615 36.5224 10.6369 39.3631C13.4777 42.2039 17.097 44.1384 21.0372 44.9222C24.9775 45.706 29.0616 45.3037 32.7733 43.7663C36.4849 42.2289 39.6573 39.6254 41.8892 36.285C44.1212 32.9446 45.3125 29.0174 45.3125 25C45.3068 19.6145 43.1649 14.4513 39.3568 10.6432C35.5487 6.83507 30.3855 4.69319 25 4.6875ZM14.4688 38.5742C15.5991 36.8064 17.1563 35.3516 18.9967 34.3439C20.8372 33.3361 22.9017 32.8079 25 32.8079C27.0983 32.8079 29.1628 33.3361 31.0033 34.3439C32.8438 35.3516 34.4009 36.8064 35.5313 38.5742C32.5202 40.916 28.8145 42.1874 25 42.1874C21.1855 42.1874 17.4798 40.916 14.4688 38.5742ZM18.75 23.4375C18.75 22.2014 19.1166 20.993 19.8033 19.9652C20.4901 18.9374 21.4662 18.1363 22.6082 17.6633C23.7503 17.1902 25.0069 17.0664 26.2193 17.3076C27.4317 17.5487 28.5453 18.144 29.4194 19.0181C30.2935 19.8922 30.8888 21.0058 31.1299 22.2182C31.3711 23.4306 31.2473 24.6872 30.7743 25.8293C30.3012 26.9713 29.5001 27.9474 28.4723 28.6342C27.4445 29.3209 26.2361 29.6875 25 29.6875C23.3424 29.6875 21.7527 29.029 20.5806 27.8569C19.4085 26.6848 18.75 25.0951 18.75 23.4375ZM37.8438 36.4082C36.1011 33.883 33.6508 31.9293 30.8008 30.793C32.3317 29.5872 33.4488 27.9343 33.9967 26.0643C34.5447 24.1942 34.4963 22.1998 33.8582 20.3585C33.2202 18.5172 32.0242 16.9205 30.4366 15.7904C28.849 14.6603 26.9487 14.0531 25 14.0531C23.0513 14.0531 21.151 14.6603 19.5634 15.7904C17.9758 16.9205 16.7798 18.5172 16.1418 20.3585C15.5037 22.1998 15.4553 24.1942 16.0033 26.0643C16.5512 27.9343 17.6683 29.5872 19.1992 30.793C16.3493 31.9293 13.8989 33.883 12.1563 36.4082C9.95424 33.932 8.51499 30.872 8.01182 27.5967C7.50864 24.3214 7.96299 20.9705 9.32016 17.9475C10.6773 14.9244 12.8794 12.3582 15.6613 10.5577C18.4432 8.75722 21.6863 7.79931 25 7.79931C28.3137 7.79931 31.5568 8.75722 34.3387 10.5577C37.1206 12.3582 39.3227 14.9244 40.6799 17.9475C42.037 20.9705 42.4914 24.3214 41.9882 27.5967C41.485 30.872 40.0458 33.932 37.8438 36.4082Z" fill="white"/>
</svg>
